G04*
G04 #@! TF.GenerationSoftware,Altium Limited,Altium Designer,21.9.2 (33)*
G04*
G04 Layer_Physical_Order=2*
G04 Layer_Color=16711680*
%FSLAX25Y25*%
%MOIN*%
G70*
G04*
G04 #@! TF.SameCoordinates,BA86B5FE-6ADB-4B19-9B50-1FBFE32A4508*
G04*
G04*
G04 #@! TF.FilePolarity,Positive*
G04*
G01*
G75*
%ADD21R,0.07677X0.07677*%
%ADD22C,0.08858*%
%ADD23C,0.00100*%
%ADD24C,0.05906*%
%ADD25R,0.05906X0.05906*%
%ADD26C,0.03000*%
G36*
X74000Y17000D02*
X2000D01*
Y70000D01*
X74000D01*
Y17000D01*
D02*
G37*
G36*
X180000D02*
X96000D01*
Y90000D01*
X180000D01*
Y17000D01*
D02*
G37*
G36*
X272000Y17000D02*
X202000D01*
Y70000D01*
X272000D01*
Y17000D01*
D02*
G37*
%LPC*%
G36*
X68500Y67499D02*
Y65500D01*
X70499D01*
X70119Y66416D01*
X69416Y67119D01*
X68500Y67499D01*
D02*
G37*
G36*
X67500D02*
X66584Y67119D01*
X65881Y66416D01*
X65501Y65500D01*
X67500D01*
Y67499D01*
D02*
G37*
G36*
X62500D02*
Y65500D01*
X64499D01*
X64119Y66416D01*
X63416Y67119D01*
X62500Y67499D01*
D02*
G37*
G36*
X61500D02*
X60584Y67119D01*
X59881Y66416D01*
X59501Y65500D01*
X61500D01*
Y67499D01*
D02*
G37*
G36*
X56500D02*
Y65500D01*
X58499D01*
X58119Y66416D01*
X57416Y67119D01*
X56500Y67499D01*
D02*
G37*
G36*
X55500D02*
X54584Y67119D01*
X53881Y66416D01*
X53501Y65500D01*
X55500D01*
Y67499D01*
D02*
G37*
G36*
X50500D02*
Y65500D01*
X52499D01*
X52119Y66416D01*
X51416Y67119D01*
X50500Y67499D01*
D02*
G37*
G36*
X49500D02*
X48584Y67119D01*
X47881Y66416D01*
X47501Y65500D01*
X49500D01*
Y67499D01*
D02*
G37*
G36*
X44500D02*
Y65500D01*
X46499D01*
X46119Y66416D01*
X45416Y67119D01*
X44500Y67499D01*
D02*
G37*
G36*
X43500D02*
X42584Y67119D01*
X41881Y66416D01*
X41501Y65500D01*
X43500D01*
Y67499D01*
D02*
G37*
G36*
X38500D02*
Y65500D01*
X40499D01*
X40119Y66416D01*
X39416Y67119D01*
X38500Y67499D01*
D02*
G37*
G36*
X37500D02*
X36584Y67119D01*
X35881Y66416D01*
X35501Y65500D01*
X37500D01*
Y67499D01*
D02*
G37*
G36*
X32500D02*
Y65500D01*
X34499D01*
X34119Y66416D01*
X33416Y67119D01*
X32500Y67499D01*
D02*
G37*
G36*
X31500D02*
X30584Y67119D01*
X29881Y66416D01*
X29501Y65500D01*
X31500D01*
Y67499D01*
D02*
G37*
G36*
X26500D02*
Y65500D01*
X28499D01*
X28119Y66416D01*
X27416Y67119D01*
X26500Y67499D01*
D02*
G37*
G36*
X25500D02*
X24584Y67119D01*
X23881Y66416D01*
X23501Y65500D01*
X25500D01*
Y67499D01*
D02*
G37*
G36*
X20500D02*
Y65500D01*
X22499D01*
X22119Y66416D01*
X21416Y67119D01*
X20500Y67499D01*
D02*
G37*
G36*
X19500D02*
X18584Y67119D01*
X17881Y66416D01*
X17501Y65500D01*
X19500D01*
Y67499D01*
D02*
G37*
G36*
X14500D02*
Y65500D01*
X16499D01*
X16119Y66416D01*
X15416Y67119D01*
X14500Y67499D01*
D02*
G37*
G36*
X13500D02*
X12584Y67119D01*
X11881Y66416D01*
X11501Y65500D01*
X13500D01*
Y67499D01*
D02*
G37*
G36*
X8500D02*
Y65500D01*
X10499D01*
X10119Y66416D01*
X9416Y67119D01*
X8500Y67499D01*
D02*
G37*
G36*
X7500D02*
X6584Y67119D01*
X5881Y66416D01*
X5501Y65500D01*
X7500D01*
Y67499D01*
D02*
G37*
G36*
X70499Y64500D02*
X68500D01*
Y62501D01*
X69416Y62881D01*
X70119Y63584D01*
X70499Y64500D01*
D02*
G37*
G36*
X67500D02*
X65501D01*
X65881Y63584D01*
X66584Y62881D01*
X67500Y62501D01*
Y64500D01*
D02*
G37*
G36*
X64499D02*
X62500D01*
Y62501D01*
X63416Y62881D01*
X64119Y63584D01*
X64499Y64500D01*
D02*
G37*
G36*
X61500D02*
X59501D01*
X59881Y63584D01*
X60584Y62881D01*
X61500Y62501D01*
Y64500D01*
D02*
G37*
G36*
X58499D02*
X56500D01*
Y62501D01*
X57416Y62881D01*
X58119Y63584D01*
X58499Y64500D01*
D02*
G37*
G36*
X55500D02*
X53501D01*
X53881Y63584D01*
X54584Y62881D01*
X55500Y62501D01*
Y64500D01*
D02*
G37*
G36*
X52499D02*
X50500D01*
Y62501D01*
X51416Y62881D01*
X52119Y63584D01*
X52499Y64500D01*
D02*
G37*
G36*
X49500D02*
X47501D01*
X47881Y63584D01*
X48584Y62881D01*
X49500Y62501D01*
Y64500D01*
D02*
G37*
G36*
X46499D02*
X44500D01*
Y62501D01*
X45416Y62881D01*
X46119Y63584D01*
X46499Y64500D01*
D02*
G37*
G36*
X43500D02*
X41501D01*
X41881Y63584D01*
X42584Y62881D01*
X43500Y62501D01*
Y64500D01*
D02*
G37*
G36*
X40499D02*
X38500D01*
Y62501D01*
X39416Y62881D01*
X40119Y63584D01*
X40499Y64500D01*
D02*
G37*
G36*
X37500D02*
X35501D01*
X35881Y63584D01*
X36584Y62881D01*
X37500Y62501D01*
Y64500D01*
D02*
G37*
G36*
X34499D02*
X32500D01*
Y62501D01*
X33416Y62881D01*
X34119Y63584D01*
X34499Y64500D01*
D02*
G37*
G36*
X31500D02*
X29501D01*
X29881Y63584D01*
X30584Y62881D01*
X31500Y62501D01*
Y64500D01*
D02*
G37*
G36*
X28499D02*
X26500D01*
Y62501D01*
X27416Y62881D01*
X28119Y63584D01*
X28499Y64500D01*
D02*
G37*
G36*
X25500D02*
X23501D01*
X23881Y63584D01*
X24584Y62881D01*
X25500Y62501D01*
Y64500D01*
D02*
G37*
G36*
X22499D02*
X20500D01*
Y62501D01*
X21416Y62881D01*
X22119Y63584D01*
X22499Y64500D01*
D02*
G37*
G36*
X19500D02*
X17501D01*
X17881Y63584D01*
X18584Y62881D01*
X19500Y62501D01*
Y64500D01*
D02*
G37*
G36*
X16499D02*
X14500D01*
Y62501D01*
X15416Y62881D01*
X16119Y63584D01*
X16499Y64500D01*
D02*
G37*
G36*
X13500D02*
X11501D01*
X11881Y63584D01*
X12584Y62881D01*
X13500Y62501D01*
Y64500D01*
D02*
G37*
G36*
X10499D02*
X8500D01*
Y62501D01*
X9416Y62881D01*
X10119Y63584D01*
X10499Y64500D01*
D02*
G37*
G36*
X7500D02*
X5501D01*
X5881Y63584D01*
X6584Y62881D01*
X7500Y62501D01*
Y64500D01*
D02*
G37*
G36*
X59500Y61499D02*
Y59500D01*
X61499D01*
X61119Y60416D01*
X60416Y61119D01*
X59500Y61499D01*
D02*
G37*
G36*
X58500D02*
X57584Y61119D01*
X56881Y60416D01*
X56501Y59500D01*
X58500D01*
Y61499D01*
D02*
G37*
G36*
X53500D02*
Y59500D01*
X55499D01*
X55119Y60416D01*
X54416Y61119D01*
X53500Y61499D01*
D02*
G37*
G36*
X52500D02*
X51584Y61119D01*
X50881Y60416D01*
X50501Y59500D01*
X52500D01*
Y61499D01*
D02*
G37*
G36*
X35500D02*
Y59500D01*
X37499D01*
X37119Y60416D01*
X36416Y61119D01*
X35500Y61499D01*
D02*
G37*
G36*
X34500D02*
X33584Y61119D01*
X32881Y60416D01*
X32501Y59500D01*
X34500D01*
Y61499D01*
D02*
G37*
G36*
X29500D02*
Y59500D01*
X31499D01*
X31119Y60416D01*
X30416Y61119D01*
X29500Y61499D01*
D02*
G37*
G36*
X28500D02*
X27584Y61119D01*
X26881Y60416D01*
X26501Y59500D01*
X28500D01*
Y61499D01*
D02*
G37*
G36*
X11500D02*
Y59500D01*
X13499D01*
X13119Y60416D01*
X12416Y61119D01*
X11500Y61499D01*
D02*
G37*
G36*
X10500D02*
X9584Y61119D01*
X8881Y60416D01*
X8501Y59500D01*
X10500D01*
Y61499D01*
D02*
G37*
G36*
X5500D02*
Y59500D01*
X7499D01*
X7119Y60416D01*
X6416Y61119D01*
X5500Y61499D01*
D02*
G37*
G36*
X4500D02*
X3584Y61119D01*
X2881Y60416D01*
X2501Y59500D01*
X4500D01*
Y61499D01*
D02*
G37*
G36*
X44514Y61472D02*
X44299D01*
Y56543D01*
X49228D01*
Y56758D01*
X48858Y58139D01*
X48144Y59377D01*
X47133Y60388D01*
X45895Y61102D01*
X44514Y61472D01*
D02*
G37*
G36*
X43299D02*
X43084D01*
X41704Y61102D01*
X40466Y60388D01*
X39455Y59377D01*
X38740Y58139D01*
X38370Y56758D01*
Y56543D01*
X43299D01*
Y61472D01*
D02*
G37*
G36*
X19908D02*
X19693D01*
Y56543D01*
X24622D01*
Y56758D01*
X24252Y58139D01*
X23537Y59377D01*
X22526Y60388D01*
X21289Y61102D01*
X19908Y61472D01*
D02*
G37*
G36*
X18693D02*
X18478D01*
X17097Y61102D01*
X15859Y60388D01*
X14849Y59377D01*
X14134Y58139D01*
X13764Y56758D01*
Y56543D01*
X18693D01*
Y61472D01*
D02*
G37*
G36*
X61499Y58500D02*
X59500D01*
Y56501D01*
X60416Y56881D01*
X61119Y57584D01*
X61499Y58500D01*
D02*
G37*
G36*
X58500D02*
X56501D01*
X56881Y57584D01*
X57584Y56881D01*
X58500Y56501D01*
Y58500D01*
D02*
G37*
G36*
X55499D02*
X53500D01*
Y56501D01*
X54416Y56881D01*
X55119Y57584D01*
X55499Y58500D01*
D02*
G37*
G36*
X52500D02*
X50501D01*
X50881Y57584D01*
X51584Y56881D01*
X52500Y56501D01*
Y58500D01*
D02*
G37*
G36*
X37499D02*
X35500D01*
Y56501D01*
X36416Y56881D01*
X37119Y57584D01*
X37499Y58500D01*
D02*
G37*
G36*
X34500D02*
X32501D01*
X32881Y57584D01*
X33584Y56881D01*
X34500Y56501D01*
Y58500D01*
D02*
G37*
G36*
X31499D02*
X29500D01*
Y56501D01*
X30416Y56881D01*
X31119Y57584D01*
X31499Y58500D01*
D02*
G37*
G36*
X28500D02*
X26501D01*
X26881Y57584D01*
X27584Y56881D01*
X28500Y56501D01*
Y58500D01*
D02*
G37*
G36*
X13499D02*
X11500D01*
Y56501D01*
X12416Y56881D01*
X13119Y57584D01*
X13499Y58500D01*
D02*
G37*
G36*
X10500D02*
X8501D01*
X8881Y57584D01*
X9584Y56881D01*
X10500Y56501D01*
Y58500D01*
D02*
G37*
G36*
X7499D02*
X5500D01*
Y56501D01*
X6416Y56881D01*
X7119Y57584D01*
X7499Y58500D01*
D02*
G37*
G36*
X4500D02*
X2501D01*
X2881Y57584D01*
X3584Y56881D01*
X4500Y56501D01*
Y58500D01*
D02*
G37*
G36*
X56500Y55499D02*
Y53500D01*
X58499D01*
X58119Y54416D01*
X57416Y55119D01*
X56500Y55499D01*
D02*
G37*
G36*
X55500D02*
X54584Y55119D01*
X53881Y54416D01*
X53501Y53500D01*
X55500D01*
Y55499D01*
D02*
G37*
G36*
X32500D02*
Y53500D01*
X34499D01*
X34119Y54416D01*
X33416Y55119D01*
X32500Y55499D01*
D02*
G37*
G36*
X31500D02*
X30584Y55119D01*
X29881Y54416D01*
X29501Y53500D01*
X31500D01*
Y55499D01*
D02*
G37*
G36*
X8500D02*
Y53500D01*
X10499D01*
X10119Y54416D01*
X9416Y55119D01*
X8500Y55499D01*
D02*
G37*
G36*
X7500D02*
X6584Y55119D01*
X5881Y54416D01*
X5501Y53500D01*
X7500D01*
Y55499D01*
D02*
G37*
G36*
X49228Y55543D02*
X44299D01*
Y50614D01*
X44514D01*
X45895Y50984D01*
X47133Y51699D01*
X48144Y52710D01*
X48858Y53948D01*
X49228Y55329D01*
Y55543D01*
D02*
G37*
G36*
X43299D02*
X38370D01*
Y55329D01*
X38740Y53948D01*
X39455Y52710D01*
X40466Y51699D01*
X41704Y50984D01*
X43084Y50614D01*
X43299D01*
Y55543D01*
D02*
G37*
G36*
X24622D02*
X19693D01*
Y50614D01*
X19908D01*
X21289Y50984D01*
X22526Y51699D01*
X23537Y52710D01*
X24252Y53948D01*
X24622Y55329D01*
Y55543D01*
D02*
G37*
G36*
X18693D02*
X13764D01*
Y55329D01*
X14134Y53948D01*
X14849Y52710D01*
X15859Y51699D01*
X17097Y50984D01*
X18478Y50614D01*
X18693D01*
Y55543D01*
D02*
G37*
G36*
X58499Y52500D02*
X56500D01*
Y50501D01*
X57416Y50881D01*
X58119Y51584D01*
X58499Y52500D01*
D02*
G37*
G36*
X55500D02*
X53501D01*
X53881Y51584D01*
X54584Y50881D01*
X55500Y50501D01*
Y52500D01*
D02*
G37*
G36*
X34499D02*
X32500D01*
Y50501D01*
X33416Y50881D01*
X34119Y51584D01*
X34499Y52500D01*
D02*
G37*
G36*
X31500D02*
X29501D01*
X29881Y51584D01*
X30584Y50881D01*
X31500Y50501D01*
Y52500D01*
D02*
G37*
G36*
X10499D02*
X8500D01*
Y50501D01*
X9416Y50881D01*
X10119Y51584D01*
X10499Y52500D01*
D02*
G37*
G36*
X7500D02*
X5501D01*
X5881Y51584D01*
X6584Y50881D01*
X7500Y50501D01*
Y52500D01*
D02*
G37*
G36*
X23500Y49499D02*
Y47500D01*
X25499D01*
X25119Y48416D01*
X24416Y49119D01*
X23500Y49499D01*
D02*
G37*
G36*
X22500D02*
X21584Y49119D01*
X20881Y48416D01*
X20501Y47500D01*
X22500D01*
Y49499D01*
D02*
G37*
G36*
X17500D02*
Y47500D01*
X19499D01*
X19119Y48416D01*
X18416Y49119D01*
X17500Y49499D01*
D02*
G37*
G36*
X16500D02*
X15584Y49119D01*
X14881Y48416D01*
X14501Y47500D01*
X16500D01*
Y49499D01*
D02*
G37*
G36*
X11500D02*
Y47500D01*
X13499D01*
X13119Y48416D01*
X12416Y49119D01*
X11500Y49499D01*
D02*
G37*
G36*
X10500D02*
X9584Y49119D01*
X8881Y48416D01*
X8501Y47500D01*
X10500D01*
Y49499D01*
D02*
G37*
G36*
X5500D02*
Y47500D01*
X7499D01*
X7119Y48416D01*
X6416Y49119D01*
X5500Y49499D01*
D02*
G37*
G36*
X4500D02*
X3584Y49119D01*
X2881Y48416D01*
X2501Y47500D01*
X4500D01*
Y49499D01*
D02*
G37*
G36*
X25499Y46500D02*
X23500D01*
Y44501D01*
X24416Y44881D01*
X25119Y45584D01*
X25499Y46500D01*
D02*
G37*
G36*
X22500D02*
X20501D01*
X20881Y45584D01*
X21584Y44881D01*
X22500Y44501D01*
Y46500D01*
D02*
G37*
G36*
X19499D02*
X17500D01*
Y44501D01*
X18416Y44881D01*
X19119Y45584D01*
X19499Y46500D01*
D02*
G37*
G36*
X16500D02*
X14501D01*
X14881Y45584D01*
X15584Y44881D01*
X16500Y44501D01*
Y46500D01*
D02*
G37*
G36*
X13499D02*
X11500D01*
Y44501D01*
X12416Y44881D01*
X13119Y45584D01*
X13499Y46500D01*
D02*
G37*
G36*
X10500D02*
X8501D01*
X8881Y45584D01*
X9584Y44881D01*
X10500Y44501D01*
Y46500D01*
D02*
G37*
G36*
X7499D02*
X5500D01*
Y44501D01*
X6416Y44881D01*
X7119Y45584D01*
X7499Y46500D01*
D02*
G37*
G36*
X4500D02*
X2501D01*
X2881Y45584D01*
X3584Y44881D01*
X4500Y44501D01*
Y46500D01*
D02*
G37*
G36*
X68500Y43499D02*
Y41500D01*
X70499D01*
X70119Y42416D01*
X69416Y43119D01*
X68500Y43499D01*
D02*
G37*
G36*
X67500D02*
X66584Y43119D01*
X65881Y42416D01*
X65501Y41500D01*
X67500D01*
Y43499D01*
D02*
G37*
G36*
X62500D02*
Y41500D01*
X64499D01*
X64119Y42416D01*
X63416Y43119D01*
X62500Y43499D01*
D02*
G37*
G36*
X61500D02*
X60584Y43119D01*
X59881Y42416D01*
X59501Y41500D01*
X61500D01*
Y43499D01*
D02*
G37*
G36*
X20500D02*
Y41500D01*
X22499D01*
X22119Y42416D01*
X21416Y43119D01*
X20500Y43499D01*
D02*
G37*
G36*
X19500D02*
X18584Y43119D01*
X17881Y42416D01*
X17501Y41500D01*
X19500D01*
Y43499D01*
D02*
G37*
G36*
X14500D02*
Y41500D01*
X16499D01*
X16119Y42416D01*
X15416Y43119D01*
X14500Y43499D01*
D02*
G37*
G36*
X13500D02*
X12584Y43119D01*
X11881Y42416D01*
X11501Y41500D01*
X13500D01*
Y43499D01*
D02*
G37*
G36*
X8500D02*
Y41500D01*
X10499D01*
X10119Y42416D01*
X9416Y43119D01*
X8500Y43499D01*
D02*
G37*
G36*
X7500D02*
X6584Y43119D01*
X5881Y42416D01*
X5501Y41500D01*
X7500D01*
Y43499D01*
D02*
G37*
G36*
X36335Y48579D02*
X26658D01*
Y38902D01*
X36335D01*
Y48579D01*
D02*
G37*
G36*
X70499Y40500D02*
X68500D01*
Y38501D01*
X69416Y38881D01*
X70119Y39584D01*
X70499Y40500D01*
D02*
G37*
G36*
X67500D02*
X65501D01*
X65881Y39584D01*
X66584Y38881D01*
X67500Y38501D01*
Y40500D01*
D02*
G37*
G36*
X64499D02*
X62500D01*
Y38501D01*
X63416Y38881D01*
X64119Y39584D01*
X64499Y40500D01*
D02*
G37*
G36*
X61500D02*
X59501D01*
X59881Y39584D01*
X60584Y38881D01*
X61500Y38501D01*
Y40500D01*
D02*
G37*
G36*
X22499D02*
X20500D01*
Y38501D01*
X21416Y38881D01*
X22119Y39584D01*
X22499Y40500D01*
D02*
G37*
G36*
X19500D02*
X17501D01*
X17881Y39584D01*
X18584Y38881D01*
X19500Y38501D01*
Y40500D01*
D02*
G37*
G36*
X16499D02*
X14500D01*
Y38501D01*
X15416Y38881D01*
X16119Y39584D01*
X16499Y40500D01*
D02*
G37*
G36*
X13500D02*
X11501D01*
X11881Y39584D01*
X12584Y38881D01*
X13500Y38501D01*
Y40500D01*
D02*
G37*
G36*
X10499D02*
X8500D01*
Y38501D01*
X9416Y38881D01*
X10119Y39584D01*
X10499Y40500D01*
D02*
G37*
G36*
X7500D02*
X5501D01*
X5881Y39584D01*
X6584Y38881D01*
X7500Y38501D01*
Y40500D01*
D02*
G37*
G36*
X59500Y37499D02*
Y35500D01*
X61499D01*
X61119Y36416D01*
X60416Y37119D01*
X59500Y37499D01*
D02*
G37*
G36*
X58500D02*
X57584Y37119D01*
X56881Y36416D01*
X56501Y35500D01*
X58500D01*
Y37499D01*
D02*
G37*
G36*
X53500D02*
Y35500D01*
X55499D01*
X55119Y36416D01*
X54416Y37119D01*
X53500Y37499D01*
D02*
G37*
G36*
X52500D02*
X51584Y37119D01*
X50881Y36416D01*
X50501Y35500D01*
X52500D01*
Y37499D01*
D02*
G37*
G36*
X35500D02*
Y35500D01*
X37499D01*
X37119Y36416D01*
X36416Y37119D01*
X35500Y37499D01*
D02*
G37*
G36*
X34500D02*
X33584Y37119D01*
X32881Y36416D01*
X32501Y35500D01*
X34500D01*
Y37499D01*
D02*
G37*
G36*
X29500D02*
Y35500D01*
X31499D01*
X31119Y36416D01*
X30416Y37119D01*
X29500Y37499D01*
D02*
G37*
G36*
X28500D02*
X27584Y37119D01*
X26881Y36416D01*
X26501Y35500D01*
X28500D01*
Y37499D01*
D02*
G37*
G36*
X11500D02*
Y35500D01*
X13499D01*
X13119Y36416D01*
X12416Y37119D01*
X11500Y37499D01*
D02*
G37*
G36*
X10500D02*
X9584Y37119D01*
X8881Y36416D01*
X8501Y35500D01*
X10500D01*
Y37499D01*
D02*
G37*
G36*
X5500D02*
Y35500D01*
X7499D01*
X7119Y36416D01*
X6416Y37119D01*
X5500Y37499D01*
D02*
G37*
G36*
X4500D02*
X3584Y37119D01*
X2881Y36416D01*
X2501Y35500D01*
X4500D01*
Y37499D01*
D02*
G37*
G36*
X61499Y34500D02*
X59500D01*
Y32501D01*
X60416Y32881D01*
X61119Y33584D01*
X61499Y34500D01*
D02*
G37*
G36*
X58500D02*
X56501D01*
X56881Y33584D01*
X57584Y32881D01*
X58500Y32501D01*
Y34500D01*
D02*
G37*
G36*
X55499D02*
X53500D01*
Y32501D01*
X54416Y32881D01*
X55119Y33584D01*
X55499Y34500D01*
D02*
G37*
G36*
X52500D02*
X50501D01*
X50881Y33584D01*
X51584Y32881D01*
X52500Y32501D01*
Y34500D01*
D02*
G37*
G36*
X37499D02*
X35500D01*
Y32501D01*
X36416Y32881D01*
X37119Y33584D01*
X37499Y34500D01*
D02*
G37*
G36*
X34500D02*
X32501D01*
X32881Y33584D01*
X33584Y32881D01*
X34500Y32501D01*
Y34500D01*
D02*
G37*
G36*
X31499D02*
X29500D01*
Y32501D01*
X30416Y32881D01*
X31119Y33584D01*
X31499Y34500D01*
D02*
G37*
G36*
X28500D02*
X26501D01*
X26881Y33584D01*
X27584Y32881D01*
X28500Y32501D01*
Y34500D01*
D02*
G37*
G36*
X13499D02*
X11500D01*
Y32501D01*
X12416Y32881D01*
X13119Y33584D01*
X13499Y34500D01*
D02*
G37*
G36*
X10500D02*
X8501D01*
X8881Y33584D01*
X9584Y32881D01*
X10500Y32501D01*
Y34500D01*
D02*
G37*
G36*
X7499D02*
X5500D01*
Y32501D01*
X6416Y32881D01*
X7119Y33584D01*
X7499Y34500D01*
D02*
G37*
G36*
X4500D02*
X2501D01*
X2881Y33584D01*
X3584Y32881D01*
X4500Y32501D01*
Y34500D01*
D02*
G37*
G36*
X44514Y36866D02*
X44299D01*
Y31937D01*
X49228D01*
Y32152D01*
X48858Y33533D01*
X48144Y34771D01*
X47133Y35781D01*
X45895Y36496D01*
X44514Y36866D01*
D02*
G37*
G36*
X43299D02*
X43084D01*
X41704Y36496D01*
X40466Y35781D01*
X39455Y34771D01*
X38740Y33533D01*
X38370Y32152D01*
Y31937D01*
X43299D01*
Y36866D01*
D02*
G37*
G36*
X19908D02*
X19693D01*
Y31937D01*
X24622D01*
Y32152D01*
X24252Y33533D01*
X23537Y34771D01*
X22526Y35781D01*
X21289Y36496D01*
X19908Y36866D01*
D02*
G37*
G36*
X18693D02*
X18478D01*
X17097Y36496D01*
X15859Y35781D01*
X14849Y34771D01*
X14134Y33533D01*
X13764Y32152D01*
Y31937D01*
X18693D01*
Y36866D01*
D02*
G37*
G36*
X56500Y31499D02*
Y29500D01*
X58499D01*
X58119Y30416D01*
X57416Y31119D01*
X56500Y31499D01*
D02*
G37*
G36*
X55500D02*
X54584Y31119D01*
X53881Y30416D01*
X53501Y29500D01*
X55500D01*
Y31499D01*
D02*
G37*
G36*
X32500D02*
Y29500D01*
X34499D01*
X34119Y30416D01*
X33416Y31119D01*
X32500Y31499D01*
D02*
G37*
G36*
X31500D02*
X30584Y31119D01*
X29881Y30416D01*
X29501Y29500D01*
X31500D01*
Y31499D01*
D02*
G37*
G36*
X8500D02*
Y29500D01*
X10499D01*
X10119Y30416D01*
X9416Y31119D01*
X8500Y31499D01*
D02*
G37*
G36*
X7500D02*
X6584Y31119D01*
X5881Y30416D01*
X5501Y29500D01*
X7500D01*
Y31499D01*
D02*
G37*
G36*
X58499Y28500D02*
X56500D01*
Y26501D01*
X57416Y26881D01*
X58119Y27584D01*
X58499Y28500D01*
D02*
G37*
G36*
X55500D02*
X53501D01*
X53881Y27584D01*
X54584Y26881D01*
X55500Y26501D01*
Y28500D01*
D02*
G37*
G36*
X34499D02*
X32500D01*
Y26501D01*
X33416Y26881D01*
X34119Y27584D01*
X34499Y28500D01*
D02*
G37*
G36*
X31500D02*
X29501D01*
X29881Y27584D01*
X30584Y26881D01*
X31500Y26501D01*
Y28500D01*
D02*
G37*
G36*
X10499D02*
X8500D01*
Y26501D01*
X9416Y26881D01*
X10119Y27584D01*
X10499Y28500D01*
D02*
G37*
G36*
X7500D02*
X5501D01*
X5881Y27584D01*
X6584Y26881D01*
X7500Y26501D01*
Y28500D01*
D02*
G37*
G36*
X49228Y30937D02*
X44299D01*
Y26008D01*
X44514D01*
X45895Y26378D01*
X47133Y27093D01*
X48144Y28103D01*
X48858Y29341D01*
X49228Y30722D01*
Y30937D01*
D02*
G37*
G36*
X43299D02*
X38370D01*
Y30722D01*
X38740Y29341D01*
X39455Y28103D01*
X40466Y27093D01*
X41704Y26378D01*
X43084Y26008D01*
X43299D01*
Y30937D01*
D02*
G37*
G36*
X24622D02*
X19693D01*
Y26008D01*
X19908D01*
X21289Y26378D01*
X22526Y27093D01*
X23537Y28103D01*
X24252Y29341D01*
X24622Y30722D01*
Y30937D01*
D02*
G37*
G36*
X18693D02*
X13764D01*
Y30722D01*
X14134Y29341D01*
X14849Y28103D01*
X15859Y27093D01*
X17097Y26378D01*
X18478Y26008D01*
X18693D01*
Y30937D01*
D02*
G37*
G36*
X59500Y25499D02*
Y23500D01*
X61499D01*
X61119Y24416D01*
X60416Y25119D01*
X59500Y25499D01*
D02*
G37*
G36*
X58500D02*
X57584Y25119D01*
X56881Y24416D01*
X56501Y23500D01*
X58500D01*
Y25499D01*
D02*
G37*
G36*
X53500D02*
Y23500D01*
X55499D01*
X55119Y24416D01*
X54416Y25119D01*
X53500Y25499D01*
D02*
G37*
G36*
X52500D02*
X51584Y25119D01*
X50881Y24416D01*
X50501Y23500D01*
X52500D01*
Y25499D01*
D02*
G37*
G36*
X47500D02*
Y23500D01*
X49499D01*
X49119Y24416D01*
X48416Y25119D01*
X47500Y25499D01*
D02*
G37*
G36*
X46500D02*
X45584Y25119D01*
X44881Y24416D01*
X44501Y23500D01*
X46500D01*
Y25499D01*
D02*
G37*
G36*
X41500D02*
Y23500D01*
X43499D01*
X43119Y24416D01*
X42416Y25119D01*
X41500Y25499D01*
D02*
G37*
G36*
X40500D02*
X39584Y25119D01*
X38881Y24416D01*
X38501Y23500D01*
X40500D01*
Y25499D01*
D02*
G37*
G36*
X35500D02*
Y23500D01*
X37499D01*
X37119Y24416D01*
X36416Y25119D01*
X35500Y25499D01*
D02*
G37*
G36*
X34500D02*
X33584Y25119D01*
X32881Y24416D01*
X32501Y23500D01*
X34500D01*
Y25499D01*
D02*
G37*
G36*
X29500D02*
Y23500D01*
X31499D01*
X31119Y24416D01*
X30416Y25119D01*
X29500Y25499D01*
D02*
G37*
G36*
X28500D02*
X27584Y25119D01*
X26881Y24416D01*
X26501Y23500D01*
X28500D01*
Y25499D01*
D02*
G37*
G36*
X23500D02*
Y23500D01*
X25499D01*
X25119Y24416D01*
X24416Y25119D01*
X23500Y25499D01*
D02*
G37*
G36*
X22500D02*
X21584Y25119D01*
X20881Y24416D01*
X20501Y23500D01*
X22500D01*
Y25499D01*
D02*
G37*
G36*
X17500D02*
Y23500D01*
X19499D01*
X19119Y24416D01*
X18416Y25119D01*
X17500Y25499D01*
D02*
G37*
G36*
X16500D02*
X15584Y25119D01*
X14881Y24416D01*
X14501Y23500D01*
X16500D01*
Y25499D01*
D02*
G37*
G36*
X11500D02*
Y23500D01*
X13499D01*
X13119Y24416D01*
X12416Y25119D01*
X11500Y25499D01*
D02*
G37*
G36*
X10500D02*
X9584Y25119D01*
X8881Y24416D01*
X8501Y23500D01*
X10500D01*
Y25499D01*
D02*
G37*
G36*
X5500D02*
Y23500D01*
X7499D01*
X7119Y24416D01*
X6416Y25119D01*
X5500Y25499D01*
D02*
G37*
G36*
X4500D02*
X3584Y25119D01*
X2881Y24416D01*
X2501Y23500D01*
X4500D01*
Y25499D01*
D02*
G37*
G36*
X61499Y22500D02*
X59500D01*
Y20501D01*
X60416Y20881D01*
X61119Y21584D01*
X61499Y22500D01*
D02*
G37*
G36*
X58500D02*
X56501D01*
X56881Y21584D01*
X57584Y20881D01*
X58500Y20501D01*
Y22500D01*
D02*
G37*
G36*
X55499D02*
X53500D01*
Y20501D01*
X54416Y20881D01*
X55119Y21584D01*
X55499Y22500D01*
D02*
G37*
G36*
X52500D02*
X50501D01*
X50881Y21584D01*
X51584Y20881D01*
X52500Y20501D01*
Y22500D01*
D02*
G37*
G36*
X49499D02*
X47500D01*
Y20501D01*
X48416Y20881D01*
X49119Y21584D01*
X49499Y22500D01*
D02*
G37*
G36*
X46500D02*
X44501D01*
X44881Y21584D01*
X45584Y20881D01*
X46500Y20501D01*
Y22500D01*
D02*
G37*
G36*
X43499D02*
X41500D01*
Y20501D01*
X42416Y20881D01*
X43119Y21584D01*
X43499Y22500D01*
D02*
G37*
G36*
X40500D02*
X38501D01*
X38881Y21584D01*
X39584Y20881D01*
X40500Y20501D01*
Y22500D01*
D02*
G37*
G36*
X37499D02*
X35500D01*
Y20501D01*
X36416Y20881D01*
X37119Y21584D01*
X37499Y22500D01*
D02*
G37*
G36*
X34500D02*
X32501D01*
X32881Y21584D01*
X33584Y20881D01*
X34500Y20501D01*
Y22500D01*
D02*
G37*
G36*
X31499D02*
X29500D01*
Y20501D01*
X30416Y20881D01*
X31119Y21584D01*
X31499Y22500D01*
D02*
G37*
G36*
X28500D02*
X26501D01*
X26881Y21584D01*
X27584Y20881D01*
X28500Y20501D01*
Y22500D01*
D02*
G37*
G36*
X25499D02*
X23500D01*
Y20501D01*
X24416Y20881D01*
X25119Y21584D01*
X25499Y22500D01*
D02*
G37*
G36*
X22500D02*
X20501D01*
X20881Y21584D01*
X21584Y20881D01*
X22500Y20501D01*
Y22500D01*
D02*
G37*
G36*
X19499D02*
X17500D01*
Y20501D01*
X18416Y20881D01*
X19119Y21584D01*
X19499Y22500D01*
D02*
G37*
G36*
X16500D02*
X14501D01*
X14881Y21584D01*
X15584Y20881D01*
X16500Y20501D01*
Y22500D01*
D02*
G37*
G36*
X13499D02*
X11500D01*
Y20501D01*
X12416Y20881D01*
X13119Y21584D01*
X13499Y22500D01*
D02*
G37*
G36*
X10500D02*
X8501D01*
X8881Y21584D01*
X9584Y20881D01*
X10500Y20501D01*
Y22500D01*
D02*
G37*
G36*
X7499D02*
X5500D01*
Y20501D01*
X6416Y20881D01*
X7119Y21584D01*
X7499Y22500D01*
D02*
G37*
G36*
X4500D02*
X2501D01*
X2881Y21584D01*
X3584Y20881D01*
X4500Y20501D01*
Y22500D01*
D02*
G37*
G36*
X132520Y87953D02*
X132500D01*
Y84500D01*
X135953D01*
Y84520D01*
X135683Y85526D01*
X135163Y86427D01*
X134427Y87163D01*
X133526Y87683D01*
X132520Y87953D01*
D02*
G37*
G36*
X131500D02*
X131480D01*
X130474Y87683D01*
X129573Y87163D01*
X128837Y86427D01*
X128317Y85526D01*
X128047Y84520D01*
Y84500D01*
X131500D01*
Y87953D01*
D02*
G37*
G36*
X173811Y82562D02*
Y80563D01*
X175810D01*
X175430Y81479D01*
X174727Y82182D01*
X173811Y82562D01*
D02*
G37*
G36*
X172811D02*
X171895Y82182D01*
X171192Y81479D01*
X170812Y80563D01*
X172811D01*
Y82562D01*
D02*
G37*
G36*
X167811D02*
Y80563D01*
X169810D01*
X169430Y81479D01*
X168727Y82182D01*
X167811Y82562D01*
D02*
G37*
G36*
X166811D02*
X165895Y82182D01*
X165192Y81479D01*
X164812Y80563D01*
X166811D01*
Y82562D01*
D02*
G37*
G36*
X161811D02*
Y80563D01*
X163810D01*
X163430Y81479D01*
X162727Y82182D01*
X161811Y82562D01*
D02*
G37*
G36*
X160811D02*
X159895Y82182D01*
X159192Y81479D01*
X158812Y80563D01*
X160811D01*
Y82562D01*
D02*
G37*
G36*
X113811D02*
Y80563D01*
X115810D01*
X115430Y81479D01*
X114727Y82182D01*
X113811Y82562D01*
D02*
G37*
G36*
X112811D02*
X111895Y82182D01*
X111192Y81479D01*
X110812Y80563D01*
X112811D01*
Y82562D01*
D02*
G37*
G36*
X107811D02*
Y80563D01*
X109810D01*
X109430Y81479D01*
X108727Y82182D01*
X107811Y82562D01*
D02*
G37*
G36*
X106811D02*
X105895Y82182D01*
X105192Y81479D01*
X104812Y80563D01*
X106811D01*
Y82562D01*
D02*
G37*
G36*
X101811D02*
Y80563D01*
X103810D01*
X103430Y81479D01*
X102727Y82182D01*
X101811Y82562D01*
D02*
G37*
G36*
X100811D02*
X99895Y82182D01*
X99192Y81479D01*
X98812Y80563D01*
X100811D01*
Y82562D01*
D02*
G37*
G36*
X155953Y87953D02*
X148047D01*
Y80047D01*
X155953D01*
Y87953D01*
D02*
G37*
G36*
X142520D02*
X141480D01*
X140474Y87683D01*
X139573Y87163D01*
X138837Y86427D01*
X138317Y85526D01*
X138047Y84520D01*
Y83480D01*
X138317Y82474D01*
X138837Y81573D01*
X139573Y80837D01*
X140474Y80317D01*
X141480Y80047D01*
X142520D01*
X143526Y80317D01*
X144427Y80837D01*
X145163Y81573D01*
X145683Y82474D01*
X145953Y83480D01*
Y84520D01*
X145683Y85526D01*
X145163Y86427D01*
X144427Y87163D01*
X143526Y87683D01*
X142520Y87953D01*
D02*
G37*
G36*
X135953Y83500D02*
X132500D01*
Y80047D01*
X132520D01*
X133526Y80317D01*
X134427Y80837D01*
X135163Y81573D01*
X135683Y82474D01*
X135953Y83480D01*
Y83500D01*
D02*
G37*
G36*
X131500D02*
X128047D01*
Y83480D01*
X128317Y82474D01*
X128837Y81573D01*
X129573Y80837D01*
X130474Y80317D01*
X131480Y80047D01*
X131500D01*
Y83500D01*
D02*
G37*
G36*
X122520Y87953D02*
X121480D01*
X120474Y87683D01*
X119573Y87163D01*
X118837Y86427D01*
X118317Y85526D01*
X118047Y84520D01*
Y83480D01*
X118317Y82474D01*
X118837Y81573D01*
X119573Y80837D01*
X120474Y80317D01*
X121480Y80047D01*
X122520D01*
X123526Y80317D01*
X124427Y80837D01*
X125163Y81573D01*
X125683Y82474D01*
X125953Y83480D01*
Y84520D01*
X125683Y85526D01*
X125163Y86427D01*
X124427Y87163D01*
X123526Y87683D01*
X122520Y87953D01*
D02*
G37*
G36*
X175810Y79563D02*
X173811D01*
Y77564D01*
X174727Y77944D01*
X175430Y78647D01*
X175810Y79563D01*
D02*
G37*
G36*
X172811D02*
X170812D01*
X171192Y78647D01*
X171895Y77944D01*
X172811Y77564D01*
Y79563D01*
D02*
G37*
G36*
X169810D02*
X167811D01*
Y77564D01*
X168727Y77944D01*
X169430Y78647D01*
X169810Y79563D01*
D02*
G37*
G36*
X166811D02*
X164812D01*
X165192Y78647D01*
X165895Y77944D01*
X166811Y77564D01*
Y79563D01*
D02*
G37*
G36*
X163810D02*
X161811D01*
Y77564D01*
X162727Y77944D01*
X163430Y78647D01*
X163810Y79563D01*
D02*
G37*
G36*
X160811D02*
X158812D01*
X159192Y78647D01*
X159895Y77944D01*
X160811Y77564D01*
Y79563D01*
D02*
G37*
G36*
X115810D02*
X113811D01*
Y77564D01*
X114727Y77944D01*
X115430Y78647D01*
X115810Y79563D01*
D02*
G37*
G36*
X112811D02*
X110812D01*
X111192Y78647D01*
X111895Y77944D01*
X112811Y77564D01*
Y79563D01*
D02*
G37*
G36*
X109810D02*
X107811D01*
Y77564D01*
X108727Y77944D01*
X109430Y78647D01*
X109810Y79563D01*
D02*
G37*
G36*
X106811D02*
X104812D01*
X105192Y78647D01*
X105895Y77944D01*
X106811Y77564D01*
Y79563D01*
D02*
G37*
G36*
X103810D02*
X101811D01*
Y77564D01*
X102727Y77944D01*
X103430Y78647D01*
X103810Y79563D01*
D02*
G37*
G36*
X100811D02*
X98812D01*
X99192Y78647D01*
X99895Y77944D01*
X100811Y77564D01*
Y79563D01*
D02*
G37*
G36*
X176811Y76562D02*
Y74563D01*
X178810D01*
X178430Y75479D01*
X177727Y76182D01*
X176811Y76562D01*
D02*
G37*
G36*
X175811D02*
X174895Y76182D01*
X174192Y75479D01*
X173812Y74563D01*
X175811D01*
Y76562D01*
D02*
G37*
G36*
X170811D02*
Y74563D01*
X172810D01*
X172430Y75479D01*
X171727Y76182D01*
X170811Y76562D01*
D02*
G37*
G36*
X169811D02*
X168895Y76182D01*
X168192Y75479D01*
X167812Y74563D01*
X169811D01*
Y76562D01*
D02*
G37*
G36*
X164811D02*
Y74563D01*
X166810D01*
X166430Y75479D01*
X165727Y76182D01*
X164811Y76562D01*
D02*
G37*
G36*
X163811D02*
X162895Y76182D01*
X162192Y75479D01*
X161812Y74563D01*
X163811D01*
Y76562D01*
D02*
G37*
G36*
X158811D02*
Y74563D01*
X160810D01*
X160430Y75479D01*
X159727Y76182D01*
X158811Y76562D01*
D02*
G37*
G36*
X157811D02*
X156895Y76182D01*
X156192Y75479D01*
X155812Y74563D01*
X157811D01*
Y76562D01*
D02*
G37*
G36*
X152811D02*
Y74563D01*
X154810D01*
X154430Y75479D01*
X153727Y76182D01*
X152811Y76562D01*
D02*
G37*
G36*
X151811D02*
X150895Y76182D01*
X150192Y75479D01*
X149812Y74563D01*
X151811D01*
Y76562D01*
D02*
G37*
G36*
X146811D02*
Y74563D01*
X148810D01*
X148430Y75479D01*
X147727Y76182D01*
X146811Y76562D01*
D02*
G37*
G36*
X145811D02*
X144895Y76182D01*
X144192Y75479D01*
X143812Y74563D01*
X145811D01*
Y76562D01*
D02*
G37*
G36*
X134811D02*
Y74563D01*
X136810D01*
X136430Y75479D01*
X135727Y76182D01*
X134811Y76562D01*
D02*
G37*
G36*
X133811D02*
X132895Y76182D01*
X132192Y75479D01*
X131812Y74563D01*
X133811D01*
Y76562D01*
D02*
G37*
G36*
X128811D02*
Y74563D01*
X130810D01*
X130430Y75479D01*
X129727Y76182D01*
X128811Y76562D01*
D02*
G37*
G36*
X127811D02*
X126895Y76182D01*
X126192Y75479D01*
X125812Y74563D01*
X127811D01*
Y76562D01*
D02*
G37*
G36*
X122811D02*
Y74563D01*
X124810D01*
X124430Y75479D01*
X123727Y76182D01*
X122811Y76562D01*
D02*
G37*
G36*
X121811D02*
X120895Y76182D01*
X120192Y75479D01*
X119812Y74563D01*
X121811D01*
Y76562D01*
D02*
G37*
G36*
X116811D02*
Y74563D01*
X118810D01*
X118430Y75479D01*
X117727Y76182D01*
X116811Y76562D01*
D02*
G37*
G36*
X115811D02*
X114895Y76182D01*
X114192Y75479D01*
X113812Y74563D01*
X115811D01*
Y76562D01*
D02*
G37*
G36*
X110811D02*
Y74563D01*
X112810D01*
X112430Y75479D01*
X111727Y76182D01*
X110811Y76562D01*
D02*
G37*
G36*
X109811D02*
X108895Y76182D01*
X108192Y75479D01*
X107812Y74563D01*
X109811D01*
Y76562D01*
D02*
G37*
G36*
X104811D02*
Y74563D01*
X106810D01*
X106430Y75479D01*
X105727Y76182D01*
X104811Y76562D01*
D02*
G37*
G36*
X103811D02*
X102895Y76182D01*
X102192Y75479D01*
X101812Y74563D01*
X103811D01*
Y76562D01*
D02*
G37*
G36*
X178810Y73563D02*
X176811D01*
Y71564D01*
X177727Y71944D01*
X178430Y72647D01*
X178810Y73563D01*
D02*
G37*
G36*
X175811D02*
X173812D01*
X174192Y72647D01*
X174895Y71944D01*
X175811Y71564D01*
Y73563D01*
D02*
G37*
G36*
X172810D02*
X170811D01*
Y71564D01*
X171727Y71944D01*
X172430Y72647D01*
X172810Y73563D01*
D02*
G37*
G36*
X169811D02*
X167812D01*
X168192Y72647D01*
X168895Y71944D01*
X169811Y71564D01*
Y73563D01*
D02*
G37*
G36*
X166810D02*
X164811D01*
Y71564D01*
X165727Y71944D01*
X166430Y72647D01*
X166810Y73563D01*
D02*
G37*
G36*
X163811D02*
X161812D01*
X162192Y72647D01*
X162895Y71944D01*
X163811Y71564D01*
Y73563D01*
D02*
G37*
G36*
X160810D02*
X158811D01*
Y71564D01*
X159727Y71944D01*
X160430Y72647D01*
X160810Y73563D01*
D02*
G37*
G36*
X157811D02*
X155812D01*
X156192Y72647D01*
X156895Y71944D01*
X157811Y71564D01*
Y73563D01*
D02*
G37*
G36*
X154810D02*
X152811D01*
Y71564D01*
X153727Y71944D01*
X154430Y72647D01*
X154810Y73563D01*
D02*
G37*
G36*
X151811D02*
X149812D01*
X150192Y72647D01*
X150895Y71944D01*
X151811Y71564D01*
Y73563D01*
D02*
G37*
G36*
X148810D02*
X146811D01*
Y71564D01*
X147727Y71944D01*
X148430Y72647D01*
X148810Y73563D01*
D02*
G37*
G36*
X145811D02*
X143812D01*
X144192Y72647D01*
X144895Y71944D01*
X145811Y71564D01*
Y73563D01*
D02*
G37*
G36*
X136810D02*
X134811D01*
Y71564D01*
X135727Y71944D01*
X136430Y72647D01*
X136810Y73563D01*
D02*
G37*
G36*
X133811D02*
X131812D01*
X132192Y72647D01*
X132895Y71944D01*
X133811Y71564D01*
Y73563D01*
D02*
G37*
G36*
X130810D02*
X128811D01*
Y71564D01*
X129727Y71944D01*
X130430Y72647D01*
X130810Y73563D01*
D02*
G37*
G36*
X127811D02*
X125812D01*
X126192Y72647D01*
X126895Y71944D01*
X127811Y71564D01*
Y73563D01*
D02*
G37*
G36*
X124810D02*
X122811D01*
Y71564D01*
X123727Y71944D01*
X124430Y72647D01*
X124810Y73563D01*
D02*
G37*
G36*
X121811D02*
X119812D01*
X120192Y72647D01*
X120895Y71944D01*
X121811Y71564D01*
Y73563D01*
D02*
G37*
G36*
X118810D02*
X116811D01*
Y71564D01*
X117727Y71944D01*
X118430Y72647D01*
X118810Y73563D01*
D02*
G37*
G36*
X115811D02*
X113812D01*
X114192Y72647D01*
X114895Y71944D01*
X115811Y71564D01*
Y73563D01*
D02*
G37*
G36*
X112810D02*
X110811D01*
Y71564D01*
X111727Y71944D01*
X112430Y72647D01*
X112810Y73563D01*
D02*
G37*
G36*
X109811D02*
X107812D01*
X108192Y72647D01*
X108895Y71944D01*
X109811Y71564D01*
Y73563D01*
D02*
G37*
G36*
X106810D02*
X104811D01*
Y71564D01*
X105727Y71944D01*
X106430Y72647D01*
X106810Y73563D01*
D02*
G37*
G36*
X103811D02*
X101812D01*
X102192Y72647D01*
X102895Y71944D01*
X103811Y71564D01*
Y73563D01*
D02*
G37*
G36*
X164811Y64562D02*
Y62563D01*
X166810D01*
X166430Y63479D01*
X165727Y64182D01*
X164811Y64562D01*
D02*
G37*
G36*
X163811D02*
X162895Y64182D01*
X162192Y63479D01*
X161812Y62563D01*
X163811D01*
Y64562D01*
D02*
G37*
G36*
X158811D02*
Y62563D01*
X160810D01*
X160430Y63479D01*
X159727Y64182D01*
X158811Y64562D01*
D02*
G37*
G36*
X157811D02*
X156895Y64182D01*
X156192Y63479D01*
X155812Y62563D01*
X157811D01*
Y64562D01*
D02*
G37*
G36*
X140811D02*
Y62563D01*
X142810D01*
X142430Y63479D01*
X141727Y64182D01*
X140811Y64562D01*
D02*
G37*
G36*
X139811D02*
X138895Y64182D01*
X138192Y63479D01*
X137812Y62563D01*
X139811D01*
Y64562D01*
D02*
G37*
G36*
X134811D02*
Y62563D01*
X136810D01*
X136430Y63479D01*
X135727Y64182D01*
X134811Y64562D01*
D02*
G37*
G36*
X133811D02*
X132895Y64182D01*
X132192Y63479D01*
X131812Y62563D01*
X133811D01*
Y64562D01*
D02*
G37*
G36*
X116811D02*
Y62563D01*
X118810D01*
X118430Y63479D01*
X117727Y64182D01*
X116811Y64562D01*
D02*
G37*
G36*
X115811D02*
X114895Y64182D01*
X114192Y63479D01*
X113812Y62563D01*
X115811D01*
Y64562D01*
D02*
G37*
G36*
X110811D02*
Y62563D01*
X112810D01*
X112430Y63479D01*
X111727Y64182D01*
X110811Y64562D01*
D02*
G37*
G36*
X109811D02*
X108895Y64182D01*
X108192Y63479D01*
X107812Y62563D01*
X109811D01*
Y64562D01*
D02*
G37*
G36*
X166810Y61563D02*
X164811D01*
Y59564D01*
X165727Y59944D01*
X166430Y60647D01*
X166810Y61563D01*
D02*
G37*
G36*
X163811D02*
X161812D01*
X162192Y60647D01*
X162895Y59944D01*
X163811Y59564D01*
Y61563D01*
D02*
G37*
G36*
X160810D02*
X158811D01*
Y59564D01*
X159727Y59944D01*
X160430Y60647D01*
X160810Y61563D01*
D02*
G37*
G36*
X157811D02*
X155812D01*
X156192Y60647D01*
X156895Y59944D01*
X157811Y59564D01*
Y61563D01*
D02*
G37*
G36*
X142810D02*
X140811D01*
Y59564D01*
X141727Y59944D01*
X142430Y60647D01*
X142810Y61563D01*
D02*
G37*
G36*
X139811D02*
X137812D01*
X138192Y60647D01*
X138895Y59944D01*
X139811Y59564D01*
Y61563D01*
D02*
G37*
G36*
X136810D02*
X134811D01*
Y59564D01*
X135727Y59944D01*
X136430Y60647D01*
X136810Y61563D01*
D02*
G37*
G36*
X133811D02*
X131812D01*
X132192Y60647D01*
X132895Y59944D01*
X133811Y59564D01*
Y61563D01*
D02*
G37*
G36*
X118810D02*
X116811D01*
Y59564D01*
X117727Y59944D01*
X118430Y60647D01*
X118810Y61563D01*
D02*
G37*
G36*
X115811D02*
X113812D01*
X114192Y60647D01*
X114895Y59944D01*
X115811Y59564D01*
Y61563D01*
D02*
G37*
G36*
X112810D02*
X110811D01*
Y59564D01*
X111727Y59944D01*
X112430Y60647D01*
X112810Y61563D01*
D02*
G37*
G36*
X109811D02*
X107812D01*
X108192Y60647D01*
X108895Y59944D01*
X109811Y59564D01*
Y61563D01*
D02*
G37*
G36*
X167811Y58562D02*
Y56563D01*
X169810D01*
X169430Y57479D01*
X168727Y58182D01*
X167811Y58562D01*
D02*
G37*
G36*
X166811D02*
X165895Y58182D01*
X165192Y57479D01*
X164812Y56563D01*
X166811D01*
Y58562D01*
D02*
G37*
G36*
X161811D02*
Y56563D01*
X163810D01*
X163430Y57479D01*
X162727Y58182D01*
X161811Y58562D01*
D02*
G37*
G36*
X160811D02*
X159895Y58182D01*
X159192Y57479D01*
X158812Y56563D01*
X160811D01*
Y58562D01*
D02*
G37*
G36*
X137811D02*
Y56563D01*
X139810D01*
X139430Y57479D01*
X138727Y58182D01*
X137811Y58562D01*
D02*
G37*
G36*
X136811D02*
X135895Y58182D01*
X135192Y57479D01*
X134812Y56563D01*
X136811D01*
Y58562D01*
D02*
G37*
G36*
X113811D02*
Y56563D01*
X115810D01*
X115430Y57479D01*
X114727Y58182D01*
X113811Y58562D01*
D02*
G37*
G36*
X112811D02*
X111895Y58182D01*
X111192Y57479D01*
X110812Y56563D01*
X112811D01*
Y58562D01*
D02*
G37*
G36*
X150813Y61472D02*
X150598D01*
Y56543D01*
X155528D01*
Y56758D01*
X155158Y58139D01*
X154443Y59377D01*
X153432Y60388D01*
X152194Y61102D01*
X150813Y61472D01*
D02*
G37*
G36*
X149598D02*
X149384D01*
X148003Y61102D01*
X146765Y60388D01*
X145754Y59377D01*
X145039Y58139D01*
X144669Y56758D01*
Y56543D01*
X149598D01*
Y61472D01*
D02*
G37*
G36*
X126207D02*
X125992D01*
Y56543D01*
X130921D01*
Y56758D01*
X130551Y58139D01*
X129836Y59377D01*
X128826Y60388D01*
X127588Y61102D01*
X126207Y61472D01*
D02*
G37*
G36*
X124992D02*
X124777D01*
X123397Y61102D01*
X122159Y60388D01*
X121148Y59377D01*
X120433Y58139D01*
X120063Y56758D01*
Y56543D01*
X124992D01*
Y61472D01*
D02*
G37*
G36*
X169810Y55563D02*
X167811D01*
Y53564D01*
X168727Y53944D01*
X169430Y54647D01*
X169810Y55563D01*
D02*
G37*
G36*
X166811D02*
X164812D01*
X165192Y54647D01*
X165895Y53944D01*
X166811Y53564D01*
Y55563D01*
D02*
G37*
G36*
X163810D02*
X161811D01*
Y53564D01*
X162727Y53944D01*
X163430Y54647D01*
X163810Y55563D01*
D02*
G37*
G36*
X160811D02*
X158812D01*
X159192Y54647D01*
X159895Y53944D01*
X160811Y53564D01*
Y55563D01*
D02*
G37*
G36*
X139810D02*
X137811D01*
Y53564D01*
X138727Y53944D01*
X139430Y54647D01*
X139810Y55563D01*
D02*
G37*
G36*
X136811D02*
X134812D01*
X135192Y54647D01*
X135895Y53944D01*
X136811Y53564D01*
Y55563D01*
D02*
G37*
G36*
X115810D02*
X113811D01*
Y53564D01*
X114727Y53944D01*
X115430Y54647D01*
X115810Y55563D01*
D02*
G37*
G36*
X112811D02*
X110812D01*
X111192Y54647D01*
X111895Y53944D01*
X112811Y53564D01*
Y55563D01*
D02*
G37*
G36*
X155528Y55543D02*
X150598D01*
Y50614D01*
X150813D01*
X152194Y50984D01*
X153432Y51699D01*
X154443Y52710D01*
X155158Y53948D01*
X155528Y55329D01*
Y55543D01*
D02*
G37*
G36*
X149598D02*
X144669D01*
Y55329D01*
X145039Y53948D01*
X145754Y52710D01*
X146765Y51699D01*
X148003Y50984D01*
X149384Y50614D01*
X149598D01*
Y55543D01*
D02*
G37*
G36*
X130921D02*
X125992D01*
Y50614D01*
X126207D01*
X127588Y50984D01*
X128826Y51699D01*
X129836Y52710D01*
X130551Y53948D01*
X130921Y55329D01*
Y55543D01*
D02*
G37*
G36*
X124992D02*
X120063D01*
Y55329D01*
X120433Y53948D01*
X121148Y52710D01*
X122159Y51699D01*
X123397Y50984D01*
X124777Y50614D01*
X124992D01*
Y55543D01*
D02*
G37*
G36*
X158811Y52562D02*
Y50563D01*
X160810D01*
X160430Y51479D01*
X159727Y52182D01*
X158811Y52562D01*
D02*
G37*
G36*
X157811D02*
X156895Y52182D01*
X156192Y51479D01*
X155812Y50563D01*
X157811D01*
Y52562D01*
D02*
G37*
G36*
X116811D02*
Y50563D01*
X118810D01*
X118430Y51479D01*
X117727Y52182D01*
X116811Y52562D01*
D02*
G37*
G36*
X115811D02*
X114895Y52182D01*
X114192Y51479D01*
X113812Y50563D01*
X115811D01*
Y52562D01*
D02*
G37*
G36*
X160810Y49563D02*
X158811D01*
Y47564D01*
X159727Y47944D01*
X160430Y48647D01*
X160810Y49563D01*
D02*
G37*
G36*
X157811D02*
X155812D01*
X156192Y48647D01*
X156895Y47944D01*
X157811Y47564D01*
Y49563D01*
D02*
G37*
G36*
X118810D02*
X116811D01*
Y47564D01*
X117727Y47944D01*
X118430Y48647D01*
X118810Y49563D01*
D02*
G37*
G36*
X115811D02*
X113812D01*
X114192Y48647D01*
X114895Y47944D01*
X115811Y47564D01*
Y49563D01*
D02*
G37*
G36*
X173811Y46562D02*
Y44563D01*
X175810D01*
X175430Y45479D01*
X174727Y46182D01*
X173811Y46562D01*
D02*
G37*
G36*
X172811D02*
X171895Y46182D01*
X171192Y45479D01*
X170812Y44563D01*
X172811D01*
Y46562D01*
D02*
G37*
G36*
X167811D02*
Y44563D01*
X169810D01*
X169430Y45479D01*
X168727Y46182D01*
X167811Y46562D01*
D02*
G37*
G36*
X166811D02*
X165895Y46182D01*
X165192Y45479D01*
X164812Y44563D01*
X166811D01*
Y46562D01*
D02*
G37*
G36*
X107811D02*
Y44563D01*
X109810D01*
X109430Y45479D01*
X108727Y46182D01*
X107811Y46562D01*
D02*
G37*
G36*
X106811D02*
X105895Y46182D01*
X105192Y45479D01*
X104812Y44563D01*
X106811D01*
Y46562D01*
D02*
G37*
G36*
X101811D02*
Y44563D01*
X103810D01*
X103430Y45479D01*
X102727Y46182D01*
X101811Y46562D01*
D02*
G37*
G36*
X100811D02*
X99895Y46182D01*
X99192Y45479D01*
X98812Y44563D01*
X100811D01*
Y46562D01*
D02*
G37*
G36*
X175810Y43563D02*
X173811D01*
Y41564D01*
X174727Y41944D01*
X175430Y42647D01*
X175810Y43563D01*
D02*
G37*
G36*
X172811D02*
X170812D01*
X171192Y42647D01*
X171895Y41944D01*
X172811Y41564D01*
Y43563D01*
D02*
G37*
G36*
X169810D02*
X167811D01*
Y41564D01*
X168727Y41944D01*
X169430Y42647D01*
X169810Y43563D01*
D02*
G37*
G36*
X166811D02*
X164812D01*
X165192Y42647D01*
X165895Y41944D01*
X166811Y41564D01*
Y43563D01*
D02*
G37*
G36*
X109810D02*
X107811D01*
Y41564D01*
X108727Y41944D01*
X109430Y42647D01*
X109810Y43563D01*
D02*
G37*
G36*
X106811D02*
X104812D01*
X105192Y42647D01*
X105895Y41944D01*
X106811Y41564D01*
Y43563D01*
D02*
G37*
G36*
X103810D02*
X101811D01*
Y41564D01*
X102727Y41944D01*
X103430Y42647D01*
X103810Y43563D01*
D02*
G37*
G36*
X100811D02*
X98812D01*
X99192Y42647D01*
X99895Y41944D01*
X100811Y41564D01*
Y43563D01*
D02*
G37*
G36*
X142634Y48579D02*
X132957D01*
Y38902D01*
X142634D01*
Y48579D01*
D02*
G37*
G36*
X164811Y40562D02*
Y38563D01*
X166810D01*
X166430Y39479D01*
X165727Y40182D01*
X164811Y40562D01*
D02*
G37*
G36*
X163811D02*
X162895Y40182D01*
X162192Y39479D01*
X161812Y38563D01*
X163811D01*
Y40562D01*
D02*
G37*
G36*
X158811D02*
Y38563D01*
X160810D01*
X160430Y39479D01*
X159727Y40182D01*
X158811Y40562D01*
D02*
G37*
G36*
X157811D02*
X156895Y40182D01*
X156192Y39479D01*
X155812Y38563D01*
X157811D01*
Y40562D01*
D02*
G37*
G36*
X116811D02*
Y38563D01*
X118810D01*
X118430Y39479D01*
X117727Y40182D01*
X116811Y40562D01*
D02*
G37*
G36*
X115811D02*
X114895Y40182D01*
X114192Y39479D01*
X113812Y38563D01*
X115811D01*
Y40562D01*
D02*
G37*
G36*
X110811D02*
Y38563D01*
X112810D01*
X112430Y39479D01*
X111727Y40182D01*
X110811Y40562D01*
D02*
G37*
G36*
X109811D02*
X108895Y40182D01*
X108192Y39479D01*
X107812Y38563D01*
X109811D01*
Y40562D01*
D02*
G37*
G36*
X166810Y37563D02*
X164811D01*
Y35564D01*
X165727Y35944D01*
X166430Y36647D01*
X166810Y37563D01*
D02*
G37*
G36*
X163811D02*
X161812D01*
X162192Y36647D01*
X162895Y35944D01*
X163811Y35564D01*
Y37563D01*
D02*
G37*
G36*
X160810D02*
X158811D01*
Y35564D01*
X159727Y35944D01*
X160430Y36647D01*
X160810Y37563D01*
D02*
G37*
G36*
X157811D02*
X155812D01*
X156192Y36647D01*
X156895Y35944D01*
X157811Y35564D01*
Y37563D01*
D02*
G37*
G36*
X118810D02*
X116811D01*
Y35564D01*
X117727Y35944D01*
X118430Y36647D01*
X118810Y37563D01*
D02*
G37*
G36*
X115811D02*
X113812D01*
X114192Y36647D01*
X114895Y35944D01*
X115811Y35564D01*
Y37563D01*
D02*
G37*
G36*
X112810D02*
X110811D01*
Y35564D01*
X111727Y35944D01*
X112430Y36647D01*
X112810Y37563D01*
D02*
G37*
G36*
X109811D02*
X107812D01*
X108192Y36647D01*
X108895Y35944D01*
X109811Y35564D01*
Y37563D01*
D02*
G37*
G36*
X167811Y34562D02*
Y32563D01*
X169810D01*
X169430Y33479D01*
X168727Y34182D01*
X167811Y34562D01*
D02*
G37*
G36*
X166811D02*
X165895Y34182D01*
X165192Y33479D01*
X164812Y32563D01*
X166811D01*
Y34562D01*
D02*
G37*
G36*
X161811D02*
Y32563D01*
X163810D01*
X163430Y33479D01*
X162727Y34182D01*
X161811Y34562D01*
D02*
G37*
G36*
X160811D02*
X159895Y34182D01*
X159192Y33479D01*
X158812Y32563D01*
X160811D01*
Y34562D01*
D02*
G37*
G36*
X137811D02*
Y32563D01*
X139810D01*
X139430Y33479D01*
X138727Y34182D01*
X137811Y34562D01*
D02*
G37*
G36*
X136811D02*
X135895Y34182D01*
X135192Y33479D01*
X134812Y32563D01*
X136811D01*
Y34562D01*
D02*
G37*
G36*
X113811D02*
Y32563D01*
X115810D01*
X115430Y33479D01*
X114727Y34182D01*
X113811Y34562D01*
D02*
G37*
G36*
X112811D02*
X111895Y34182D01*
X111192Y33479D01*
X110812Y32563D01*
X112811D01*
Y34562D01*
D02*
G37*
G36*
X107811D02*
Y32563D01*
X109810D01*
X109430Y33479D01*
X108727Y34182D01*
X107811Y34562D01*
D02*
G37*
G36*
X106811D02*
X105895Y34182D01*
X105192Y33479D01*
X104812Y32563D01*
X106811D01*
Y34562D01*
D02*
G37*
G36*
X150813Y36866D02*
X150598D01*
Y31937D01*
X155528D01*
Y32152D01*
X155158Y33533D01*
X154443Y34771D01*
X153432Y35781D01*
X152194Y36496D01*
X150813Y36866D01*
D02*
G37*
G36*
X149598D02*
X149384D01*
X148003Y36496D01*
X146765Y35781D01*
X145754Y34771D01*
X145039Y33533D01*
X144669Y32152D01*
Y31937D01*
X149598D01*
Y36866D01*
D02*
G37*
G36*
X126207D02*
X125992D01*
Y31937D01*
X130921D01*
Y32152D01*
X130551Y33533D01*
X129836Y34771D01*
X128826Y35781D01*
X127588Y36496D01*
X126207Y36866D01*
D02*
G37*
G36*
X124992D02*
X124777D01*
X123397Y36496D01*
X122159Y35781D01*
X121148Y34771D01*
X120433Y33533D01*
X120063Y32152D01*
Y31937D01*
X124992D01*
Y36866D01*
D02*
G37*
G36*
X169810Y31563D02*
X167811D01*
Y29564D01*
X168727Y29944D01*
X169430Y30647D01*
X169810Y31563D01*
D02*
G37*
G36*
X166811D02*
X164812D01*
X165192Y30647D01*
X165895Y29944D01*
X166811Y29564D01*
Y31563D01*
D02*
G37*
G36*
X163810D02*
X161811D01*
Y29564D01*
X162727Y29944D01*
X163430Y30647D01*
X163810Y31563D01*
D02*
G37*
G36*
X160811D02*
X158812D01*
X159192Y30647D01*
X159895Y29944D01*
X160811Y29564D01*
Y31563D01*
D02*
G37*
G36*
X139810D02*
X137811D01*
Y29564D01*
X138727Y29944D01*
X139430Y30647D01*
X139810Y31563D01*
D02*
G37*
G36*
X136811D02*
X134812D01*
X135192Y30647D01*
X135895Y29944D01*
X136811Y29564D01*
Y31563D01*
D02*
G37*
G36*
X115810D02*
X113811D01*
Y29564D01*
X114727Y29944D01*
X115430Y30647D01*
X115810Y31563D01*
D02*
G37*
G36*
X112811D02*
X110812D01*
X111192Y30647D01*
X111895Y29944D01*
X112811Y29564D01*
Y31563D01*
D02*
G37*
G36*
X109810D02*
X107811D01*
Y29564D01*
X108727Y29944D01*
X109430Y30647D01*
X109810Y31563D01*
D02*
G37*
G36*
X106811D02*
X104812D01*
X105192Y30647D01*
X105895Y29944D01*
X106811Y29564D01*
Y31563D01*
D02*
G37*
G36*
X164811Y28562D02*
Y26563D01*
X166810D01*
X166430Y27479D01*
X165727Y28182D01*
X164811Y28562D01*
D02*
G37*
G36*
X163811D02*
X162895Y28182D01*
X162192Y27479D01*
X161812Y26563D01*
X163811D01*
Y28562D01*
D02*
G37*
G36*
X158811D02*
Y26563D01*
X160810D01*
X160430Y27479D01*
X159727Y28182D01*
X158811Y28562D01*
D02*
G37*
G36*
X157811D02*
X156895Y28182D01*
X156192Y27479D01*
X155812Y26563D01*
X157811D01*
Y28562D01*
D02*
G37*
G36*
X140811D02*
Y26563D01*
X142810D01*
X142430Y27479D01*
X141727Y28182D01*
X140811Y28562D01*
D02*
G37*
G36*
X139811D02*
X138895Y28182D01*
X138192Y27479D01*
X137812Y26563D01*
X139811D01*
Y28562D01*
D02*
G37*
G36*
X134811D02*
Y26563D01*
X136810D01*
X136430Y27479D01*
X135727Y28182D01*
X134811Y28562D01*
D02*
G37*
G36*
X133811D02*
X132895Y28182D01*
X132192Y27479D01*
X131812Y26563D01*
X133811D01*
Y28562D01*
D02*
G37*
G36*
X116811D02*
Y26563D01*
X118810D01*
X118430Y27479D01*
X117727Y28182D01*
X116811Y28562D01*
D02*
G37*
G36*
X115811D02*
X114895Y28182D01*
X114192Y27479D01*
X113812Y26563D01*
X115811D01*
Y28562D01*
D02*
G37*
G36*
X110811D02*
Y26563D01*
X112810D01*
X112430Y27479D01*
X111727Y28182D01*
X110811Y28562D01*
D02*
G37*
G36*
X109811D02*
X108895Y28182D01*
X108192Y27479D01*
X107812Y26563D01*
X109811D01*
Y28562D01*
D02*
G37*
G36*
X155528Y30937D02*
X150598D01*
Y26008D01*
X150813D01*
X152194Y26378D01*
X153432Y27093D01*
X154443Y28103D01*
X155158Y29341D01*
X155528Y30722D01*
Y30937D01*
D02*
G37*
G36*
X149598D02*
X144669D01*
Y30722D01*
X145039Y29341D01*
X145754Y28103D01*
X146765Y27093D01*
X148003Y26378D01*
X149384Y26008D01*
X149598D01*
Y30937D01*
D02*
G37*
G36*
X130921D02*
X125992D01*
Y26008D01*
X126207D01*
X127588Y26378D01*
X128826Y27093D01*
X129836Y28103D01*
X130551Y29341D01*
X130921Y30722D01*
Y30937D01*
D02*
G37*
G36*
X124992D02*
X120063D01*
Y30722D01*
X120433Y29341D01*
X121148Y28103D01*
X122159Y27093D01*
X123397Y26378D01*
X124777Y26008D01*
X124992D01*
Y30937D01*
D02*
G37*
G36*
X166810Y25563D02*
X164811D01*
Y23564D01*
X165727Y23944D01*
X166430Y24647D01*
X166810Y25563D01*
D02*
G37*
G36*
X163811D02*
X161812D01*
X162192Y24647D01*
X162895Y23944D01*
X163811Y23564D01*
Y25563D01*
D02*
G37*
G36*
X160810D02*
X158811D01*
Y23564D01*
X159727Y23944D01*
X160430Y24647D01*
X160810Y25563D01*
D02*
G37*
G36*
X157811D02*
X155812D01*
X156192Y24647D01*
X156895Y23944D01*
X157811Y23564D01*
Y25563D01*
D02*
G37*
G36*
X142810D02*
X140811D01*
Y23564D01*
X141727Y23944D01*
X142430Y24647D01*
X142810Y25563D01*
D02*
G37*
G36*
X139811D02*
X137812D01*
X138192Y24647D01*
X138895Y23944D01*
X139811Y23564D01*
Y25563D01*
D02*
G37*
G36*
X136810D02*
X134811D01*
Y23564D01*
X135727Y23944D01*
X136430Y24647D01*
X136810Y25563D01*
D02*
G37*
G36*
X133811D02*
X131812D01*
X132192Y24647D01*
X132895Y23944D01*
X133811Y23564D01*
Y25563D01*
D02*
G37*
G36*
X118810D02*
X116811D01*
Y23564D01*
X117727Y23944D01*
X118430Y24647D01*
X118810Y25563D01*
D02*
G37*
G36*
X115811D02*
X113812D01*
X114192Y24647D01*
X114895Y23944D01*
X115811Y23564D01*
Y25563D01*
D02*
G37*
G36*
X112810D02*
X110811D01*
Y23564D01*
X111727Y23944D01*
X112430Y24647D01*
X112810Y25563D01*
D02*
G37*
G36*
X109811D02*
X107812D01*
X108192Y24647D01*
X108895Y23944D01*
X109811Y23564D01*
Y25563D01*
D02*
G37*
G36*
X173811Y22562D02*
Y20563D01*
X175810D01*
X175430Y21479D01*
X174727Y22182D01*
X173811Y22562D01*
D02*
G37*
G36*
X172811D02*
X171895Y22182D01*
X171192Y21479D01*
X170812Y20563D01*
X172811D01*
Y22562D01*
D02*
G37*
G36*
X167811D02*
Y20563D01*
X169810D01*
X169430Y21479D01*
X168727Y22182D01*
X167811Y22562D01*
D02*
G37*
G36*
X166811D02*
X165895Y22182D01*
X165192Y21479D01*
X164812Y20563D01*
X166811D01*
Y22562D01*
D02*
G37*
G36*
X161811D02*
Y20563D01*
X163810D01*
X163430Y21479D01*
X162727Y22182D01*
X161811Y22562D01*
D02*
G37*
G36*
X160811D02*
X159895Y22182D01*
X159192Y21479D01*
X158812Y20563D01*
X160811D01*
Y22562D01*
D02*
G37*
G36*
X155811D02*
Y20563D01*
X157810D01*
X157430Y21479D01*
X156727Y22182D01*
X155811Y22562D01*
D02*
G37*
G36*
X154811D02*
X153895Y22182D01*
X153192Y21479D01*
X152812Y20563D01*
X154811D01*
Y22562D01*
D02*
G37*
G36*
X149811D02*
Y20563D01*
X151810D01*
X151430Y21479D01*
X150727Y22182D01*
X149811Y22562D01*
D02*
G37*
G36*
X148811D02*
X147895Y22182D01*
X147192Y21479D01*
X146812Y20563D01*
X148811D01*
Y22562D01*
D02*
G37*
G36*
X143811D02*
Y20563D01*
X145810D01*
X145430Y21479D01*
X144727Y22182D01*
X143811Y22562D01*
D02*
G37*
G36*
X142811D02*
X141895Y22182D01*
X141192Y21479D01*
X140812Y20563D01*
X142811D01*
Y22562D01*
D02*
G37*
G36*
X137811D02*
Y20563D01*
X139810D01*
X139430Y21479D01*
X138727Y22182D01*
X137811Y22562D01*
D02*
G37*
G36*
X136811D02*
X135895Y22182D01*
X135192Y21479D01*
X134812Y20563D01*
X136811D01*
Y22562D01*
D02*
G37*
G36*
X131811D02*
Y20563D01*
X133810D01*
X133430Y21479D01*
X132727Y22182D01*
X131811Y22562D01*
D02*
G37*
G36*
X130811D02*
X129895Y22182D01*
X129192Y21479D01*
X128812Y20563D01*
X130811D01*
Y22562D01*
D02*
G37*
G36*
X125811D02*
Y20563D01*
X127810D01*
X127430Y21479D01*
X126727Y22182D01*
X125811Y22562D01*
D02*
G37*
G36*
X124811D02*
X123895Y22182D01*
X123192Y21479D01*
X122812Y20563D01*
X124811D01*
Y22562D01*
D02*
G37*
G36*
X119811D02*
Y20563D01*
X121810D01*
X121430Y21479D01*
X120727Y22182D01*
X119811Y22562D01*
D02*
G37*
G36*
X118811D02*
X117895Y22182D01*
X117192Y21479D01*
X116812Y20563D01*
X118811D01*
Y22562D01*
D02*
G37*
G36*
X113811D02*
Y20563D01*
X115810D01*
X115430Y21479D01*
X114727Y22182D01*
X113811Y22562D01*
D02*
G37*
G36*
X112811D02*
X111895Y22182D01*
X111192Y21479D01*
X110812Y20563D01*
X112811D01*
Y22562D01*
D02*
G37*
G36*
X107811D02*
Y20563D01*
X109810D01*
X109430Y21479D01*
X108727Y22182D01*
X107811Y22562D01*
D02*
G37*
G36*
X106811D02*
X105895Y22182D01*
X105192Y21479D01*
X104812Y20563D01*
X106811D01*
Y22562D01*
D02*
G37*
G36*
X101811D02*
Y20563D01*
X103810D01*
X103430Y21479D01*
X102727Y22182D01*
X101811Y22562D01*
D02*
G37*
G36*
X100811D02*
X99895Y22182D01*
X99192Y21479D01*
X98812Y20563D01*
X100811D01*
Y22562D01*
D02*
G37*
G36*
X175810Y19563D02*
X173811D01*
Y17564D01*
X174727Y17944D01*
X175430Y18647D01*
X175810Y19563D01*
D02*
G37*
G36*
X172811D02*
X170812D01*
X171192Y18647D01*
X171895Y17944D01*
X172811Y17564D01*
Y19563D01*
D02*
G37*
G36*
X169810D02*
X167811D01*
Y17564D01*
X168727Y17944D01*
X169430Y18647D01*
X169810Y19563D01*
D02*
G37*
G36*
X166811D02*
X164812D01*
X165192Y18647D01*
X165895Y17944D01*
X166811Y17564D01*
Y19563D01*
D02*
G37*
G36*
X163810D02*
X161811D01*
Y17564D01*
X162727Y17944D01*
X163430Y18647D01*
X163810Y19563D01*
D02*
G37*
G36*
X160811D02*
X158812D01*
X159192Y18647D01*
X159895Y17944D01*
X160811Y17564D01*
Y19563D01*
D02*
G37*
G36*
X157810D02*
X155811D01*
Y17564D01*
X156727Y17944D01*
X157430Y18647D01*
X157810Y19563D01*
D02*
G37*
G36*
X154811D02*
X152812D01*
X153192Y18647D01*
X153895Y17944D01*
X154811Y17564D01*
Y19563D01*
D02*
G37*
G36*
X151810D02*
X149811D01*
Y17564D01*
X150727Y17944D01*
X151430Y18647D01*
X151810Y19563D01*
D02*
G37*
G36*
X148811D02*
X146812D01*
X147192Y18647D01*
X147895Y17944D01*
X148811Y17564D01*
Y19563D01*
D02*
G37*
G36*
X145810D02*
X143811D01*
Y17564D01*
X144727Y17944D01*
X145430Y18647D01*
X145810Y19563D01*
D02*
G37*
G36*
X142811D02*
X140812D01*
X141192Y18647D01*
X141895Y17944D01*
X142811Y17564D01*
Y19563D01*
D02*
G37*
G36*
X139810D02*
X137811D01*
Y17564D01*
X138727Y17944D01*
X139430Y18647D01*
X139810Y19563D01*
D02*
G37*
G36*
X136811D02*
X134812D01*
X135192Y18647D01*
X135895Y17944D01*
X136811Y17564D01*
Y19563D01*
D02*
G37*
G36*
X133810D02*
X131811D01*
Y17564D01*
X132727Y17944D01*
X133430Y18647D01*
X133810Y19563D01*
D02*
G37*
G36*
X130811D02*
X128812D01*
X129192Y18647D01*
X129895Y17944D01*
X130811Y17564D01*
Y19563D01*
D02*
G37*
G36*
X127810D02*
X125811D01*
Y17564D01*
X126727Y17944D01*
X127430Y18647D01*
X127810Y19563D01*
D02*
G37*
G36*
X124811D02*
X122812D01*
X123192Y18647D01*
X123895Y17944D01*
X124811Y17564D01*
Y19563D01*
D02*
G37*
G36*
X121810D02*
X119811D01*
Y17564D01*
X120727Y17944D01*
X121430Y18647D01*
X121810Y19563D01*
D02*
G37*
G36*
X118811D02*
X116812D01*
X117192Y18647D01*
X117895Y17944D01*
X118811Y17564D01*
Y19563D01*
D02*
G37*
G36*
X115810D02*
X113811D01*
Y17564D01*
X114727Y17944D01*
X115430Y18647D01*
X115810Y19563D01*
D02*
G37*
G36*
X112811D02*
X110812D01*
X111192Y18647D01*
X111895Y17944D01*
X112811Y17564D01*
Y19563D01*
D02*
G37*
G36*
X109810D02*
X107811D01*
Y17564D01*
X108727Y17944D01*
X109430Y18647D01*
X109810Y19563D01*
D02*
G37*
G36*
X106811D02*
X104812D01*
X105192Y18647D01*
X105895Y17944D01*
X106811Y17564D01*
Y19563D01*
D02*
G37*
G36*
X103810D02*
X101811D01*
Y17564D01*
X102727Y17944D01*
X103430Y18647D01*
X103810Y19563D01*
D02*
G37*
G36*
X100811D02*
X98812D01*
X99192Y18647D01*
X99895Y17944D01*
X100811Y17564D01*
Y19563D01*
D02*
G37*
G36*
X267500Y66499D02*
Y64500D01*
X269499D01*
X269119Y65416D01*
X268416Y66119D01*
X267500Y66499D01*
D02*
G37*
G36*
X266500D02*
X265584Y66119D01*
X264881Y65416D01*
X264501Y64500D01*
X266500D01*
Y66499D01*
D02*
G37*
G36*
X261500D02*
Y64500D01*
X263499D01*
X263119Y65416D01*
X262416Y66119D01*
X261500Y66499D01*
D02*
G37*
G36*
X260500D02*
X259584Y66119D01*
X258881Y65416D01*
X258501Y64500D01*
X260500D01*
Y66499D01*
D02*
G37*
G36*
X249500D02*
Y64500D01*
X251499D01*
X251119Y65416D01*
X250416Y66119D01*
X249500Y66499D01*
D02*
G37*
G36*
X248500D02*
X247584Y66119D01*
X246881Y65416D01*
X246501Y64500D01*
X248500D01*
Y66499D01*
D02*
G37*
G36*
X243500D02*
Y64500D01*
X245499D01*
X245119Y65416D01*
X244416Y66119D01*
X243500Y66499D01*
D02*
G37*
G36*
X242500D02*
X241584Y66119D01*
X240881Y65416D01*
X240501Y64500D01*
X242500D01*
Y66499D01*
D02*
G37*
G36*
X237500D02*
Y64500D01*
X239499D01*
X239119Y65416D01*
X238416Y66119D01*
X237500Y66499D01*
D02*
G37*
G36*
X236500D02*
X235584Y66119D01*
X234881Y65416D01*
X234501Y64500D01*
X236500D01*
Y66499D01*
D02*
G37*
G36*
X225500D02*
Y64500D01*
X227499D01*
X227119Y65416D01*
X226416Y66119D01*
X225500Y66499D01*
D02*
G37*
G36*
X224500D02*
X223584Y66119D01*
X222881Y65416D01*
X222501Y64500D01*
X224500D01*
Y66499D01*
D02*
G37*
G36*
X219500D02*
Y64500D01*
X221499D01*
X221119Y65416D01*
X220416Y66119D01*
X219500Y66499D01*
D02*
G37*
G36*
X218500D02*
X217584Y66119D01*
X216881Y65416D01*
X216501Y64500D01*
X218500D01*
Y66499D01*
D02*
G37*
G36*
X269499Y63500D02*
X267500D01*
Y61501D01*
X268416Y61881D01*
X269119Y62584D01*
X269499Y63500D01*
D02*
G37*
G36*
X266500D02*
X264501D01*
X264881Y62584D01*
X265584Y61881D01*
X266500Y61501D01*
Y63500D01*
D02*
G37*
G36*
X263499D02*
X261500D01*
Y61501D01*
X262416Y61881D01*
X263119Y62584D01*
X263499Y63500D01*
D02*
G37*
G36*
X260500D02*
X258501D01*
X258881Y62584D01*
X259584Y61881D01*
X260500Y61501D01*
Y63500D01*
D02*
G37*
G36*
X251499D02*
X249500D01*
Y61501D01*
X250416Y61881D01*
X251119Y62584D01*
X251499Y63500D01*
D02*
G37*
G36*
X248500D02*
X246501D01*
X246881Y62584D01*
X247584Y61881D01*
X248500Y61501D01*
Y63500D01*
D02*
G37*
G36*
X245499D02*
X243500D01*
Y61501D01*
X244416Y61881D01*
X245119Y62584D01*
X245499Y63500D01*
D02*
G37*
G36*
X242500D02*
X240501D01*
X240881Y62584D01*
X241584Y61881D01*
X242500Y61501D01*
Y63500D01*
D02*
G37*
G36*
X239499D02*
X237500D01*
Y61501D01*
X238416Y61881D01*
X239119Y62584D01*
X239499Y63500D01*
D02*
G37*
G36*
X236500D02*
X234501D01*
X234881Y62584D01*
X235584Y61881D01*
X236500Y61501D01*
Y63500D01*
D02*
G37*
G36*
X227499D02*
X225500D01*
Y61501D01*
X226416Y61881D01*
X227119Y62584D01*
X227499Y63500D01*
D02*
G37*
G36*
X224500D02*
X222501D01*
X222881Y62584D01*
X223584Y61881D01*
X224500Y61501D01*
Y63500D01*
D02*
G37*
G36*
X221499D02*
X219500D01*
Y61501D01*
X220416Y61881D01*
X221119Y62584D01*
X221499Y63500D01*
D02*
G37*
G36*
X218500D02*
X216501D01*
X216881Y62584D01*
X217584Y61881D01*
X218500Y61501D01*
Y63500D01*
D02*
G37*
G36*
X246500Y60499D02*
Y58500D01*
X248499D01*
X248119Y59416D01*
X247416Y60119D01*
X246500Y60499D01*
D02*
G37*
G36*
X245500D02*
X244584Y60119D01*
X243881Y59416D01*
X243501Y58500D01*
X245500D01*
Y60499D01*
D02*
G37*
G36*
X222500D02*
Y58500D01*
X224499D01*
X224119Y59416D01*
X223416Y60119D01*
X222500Y60499D01*
D02*
G37*
G36*
X221500D02*
X220584Y60119D01*
X219881Y59416D01*
X219501Y58500D01*
X221500D01*
Y60499D01*
D02*
G37*
G36*
X216500D02*
Y58500D01*
X218499D01*
X218119Y59416D01*
X217416Y60119D01*
X216500Y60499D01*
D02*
G37*
G36*
X215500D02*
X214584Y60119D01*
X213881Y59416D01*
X213501Y58500D01*
X215500D01*
Y60499D01*
D02*
G37*
G36*
X257112Y61472D02*
X256898D01*
Y56543D01*
X261827D01*
Y56758D01*
X261457Y58139D01*
X260742Y59377D01*
X259731Y60388D01*
X258493Y61102D01*
X257112Y61472D01*
D02*
G37*
G36*
X255898D02*
X255683D01*
X254302Y61102D01*
X253064Y60388D01*
X252053Y59377D01*
X251339Y58139D01*
X250969Y56758D01*
Y56543D01*
X255898D01*
Y61472D01*
D02*
G37*
G36*
X232506D02*
X232291D01*
Y56543D01*
X237221D01*
Y56758D01*
X236851Y58139D01*
X236136Y59377D01*
X235125Y60388D01*
X233887Y61102D01*
X232506Y61472D01*
D02*
G37*
G36*
X231291D02*
X231077D01*
X229696Y61102D01*
X228458Y60388D01*
X227447Y59377D01*
X226732Y58139D01*
X226362Y56758D01*
Y56543D01*
X231291D01*
Y61472D01*
D02*
G37*
G36*
X248499Y57500D02*
X246500D01*
Y55501D01*
X247416Y55881D01*
X248119Y56584D01*
X248499Y57500D01*
D02*
G37*
G36*
X245500D02*
X243501D01*
X243881Y56584D01*
X244584Y55881D01*
X245500Y55501D01*
Y57500D01*
D02*
G37*
G36*
X224499D02*
X222500D01*
Y55501D01*
X223416Y55881D01*
X224119Y56584D01*
X224499Y57500D01*
D02*
G37*
G36*
X221500D02*
X219501D01*
X219881Y56584D01*
X220584Y55881D01*
X221500Y55501D01*
Y57500D01*
D02*
G37*
G36*
X218499D02*
X216500D01*
Y55501D01*
X217416Y55881D01*
X218119Y56584D01*
X218499Y57500D01*
D02*
G37*
G36*
X215500D02*
X213501D01*
X213881Y56584D01*
X214584Y55881D01*
X215500Y55501D01*
Y57500D01*
D02*
G37*
G36*
X267500Y54499D02*
Y52500D01*
X269499D01*
X269119Y53416D01*
X268416Y54119D01*
X267500Y54499D01*
D02*
G37*
G36*
X266500D02*
X265584Y54119D01*
X264881Y53416D01*
X264501Y52500D01*
X266500D01*
Y54499D01*
D02*
G37*
G36*
X243500D02*
Y52500D01*
X245499D01*
X245119Y53416D01*
X244416Y54119D01*
X243500Y54499D01*
D02*
G37*
G36*
X242500D02*
X241584Y54119D01*
X240881Y53416D01*
X240501Y52500D01*
X242500D01*
Y54499D01*
D02*
G37*
G36*
X261827Y55543D02*
X256898D01*
Y50614D01*
X257112D01*
X258493Y50984D01*
X259731Y51699D01*
X260742Y52710D01*
X261457Y53948D01*
X261827Y55329D01*
Y55543D01*
D02*
G37*
G36*
X255898D02*
X250969D01*
Y55329D01*
X251339Y53948D01*
X252053Y52710D01*
X253064Y51699D01*
X254302Y50984D01*
X255683Y50614D01*
X255898D01*
Y55543D01*
D02*
G37*
G36*
X237221D02*
X232291D01*
Y50614D01*
X232506D01*
X233887Y50984D01*
X235125Y51699D01*
X236136Y52710D01*
X236851Y53948D01*
X237221Y55329D01*
Y55543D01*
D02*
G37*
G36*
X231291D02*
X226362D01*
Y55329D01*
X226732Y53948D01*
X227447Y52710D01*
X228458Y51699D01*
X229696Y50984D01*
X231077Y50614D01*
X231291D01*
Y55543D01*
D02*
G37*
G36*
X269499Y51500D02*
X267500D01*
Y49501D01*
X268416Y49881D01*
X269119Y50584D01*
X269499Y51500D01*
D02*
G37*
G36*
X266500D02*
X264501D01*
X264881Y50584D01*
X265584Y49881D01*
X266500Y49501D01*
Y51500D01*
D02*
G37*
G36*
X245499D02*
X243500D01*
Y49501D01*
X244416Y49881D01*
X245119Y50584D01*
X245499Y51500D01*
D02*
G37*
G36*
X242500D02*
X240501D01*
X240881Y50584D01*
X241584Y49881D01*
X242500Y49501D01*
Y51500D01*
D02*
G37*
G36*
X264500Y48499D02*
Y46500D01*
X266499D01*
X266119Y47416D01*
X265416Y48119D01*
X264500Y48499D01*
D02*
G37*
G36*
X263500D02*
X262584Y48119D01*
X261881Y47416D01*
X261501Y46500D01*
X263500D01*
Y48499D01*
D02*
G37*
G36*
X258500D02*
Y46500D01*
X260499D01*
X260119Y47416D01*
X259416Y48119D01*
X258500Y48499D01*
D02*
G37*
G36*
X257500D02*
X256584Y48119D01*
X255881Y47416D01*
X255501Y46500D01*
X257500D01*
Y48499D01*
D02*
G37*
G36*
X252500D02*
Y46500D01*
X254499D01*
X254119Y47416D01*
X253416Y48119D01*
X252500Y48499D01*
D02*
G37*
G36*
X251500D02*
X250584Y48119D01*
X249881Y47416D01*
X249501Y46500D01*
X251500D01*
Y48499D01*
D02*
G37*
G36*
X210500D02*
Y46500D01*
X212499D01*
X212119Y47416D01*
X211416Y48119D01*
X210500Y48499D01*
D02*
G37*
G36*
X209500D02*
X208584Y48119D01*
X207881Y47416D01*
X207501Y46500D01*
X209500D01*
Y48499D01*
D02*
G37*
G36*
X266499Y45500D02*
X264500D01*
Y43501D01*
X265416Y43881D01*
X266119Y44584D01*
X266499Y45500D01*
D02*
G37*
G36*
X263500D02*
X261501D01*
X261881Y44584D01*
X262584Y43881D01*
X263500Y43501D01*
Y45500D01*
D02*
G37*
G36*
X260499D02*
X258500D01*
Y43501D01*
X259416Y43881D01*
X260119Y44584D01*
X260499Y45500D01*
D02*
G37*
G36*
X257500D02*
X255501D01*
X255881Y44584D01*
X256584Y43881D01*
X257500Y43501D01*
Y45500D01*
D02*
G37*
G36*
X254499D02*
X252500D01*
Y43501D01*
X253416Y43881D01*
X254119Y44584D01*
X254499Y45500D01*
D02*
G37*
G36*
X251500D02*
X249501D01*
X249881Y44584D01*
X250584Y43881D01*
X251500Y43501D01*
Y45500D01*
D02*
G37*
G36*
X212499D02*
X210500D01*
Y43501D01*
X211416Y43881D01*
X212119Y44584D01*
X212499Y45500D01*
D02*
G37*
G36*
X209500D02*
X207501D01*
X207881Y44584D01*
X208584Y43881D01*
X209500Y43501D01*
Y45500D01*
D02*
G37*
G36*
X248933Y48579D02*
X239256D01*
Y41987D01*
X238756Y41780D01*
X238416Y42119D01*
X237500Y42499D01*
Y40000D01*
Y37501D01*
X238416Y37881D01*
X238993Y38457D01*
X239031Y38495D01*
X239031Y38495D01*
X239119Y38584D01*
X239236Y38867D01*
X239236Y38867D01*
X239237Y38867D01*
X239256Y38902D01*
X239713Y38902D01*
X248933D01*
Y48579D01*
D02*
G37*
G36*
X267500Y42499D02*
Y40500D01*
X269499D01*
X269119Y41416D01*
X268416Y42119D01*
X267500Y42499D01*
D02*
G37*
G36*
X266500D02*
X265584Y42119D01*
X264881Y41416D01*
X264501Y40500D01*
X266500D01*
Y42499D01*
D02*
G37*
G36*
X261500D02*
Y40500D01*
X263499D01*
X263119Y41416D01*
X262416Y42119D01*
X261500Y42499D01*
D02*
G37*
G36*
X260500D02*
X259584Y42119D01*
X258881Y41416D01*
X258501Y40500D01*
X260500D01*
Y42499D01*
D02*
G37*
G36*
X255500D02*
Y40500D01*
X257499D01*
X257119Y41416D01*
X256416Y42119D01*
X255500Y42499D01*
D02*
G37*
G36*
X254500D02*
X253584Y42119D01*
X252881Y41416D01*
X252501Y40500D01*
X254500D01*
Y42499D01*
D02*
G37*
G36*
X236500D02*
X235584Y42119D01*
X234881Y41416D01*
X234501Y40500D01*
X236500D01*
Y42499D01*
D02*
G37*
G36*
X231500D02*
Y40500D01*
X233499D01*
X233119Y41416D01*
X232416Y42119D01*
X231500Y42499D01*
D02*
G37*
G36*
X230500D02*
X229584Y42119D01*
X228881Y41416D01*
X228501Y40500D01*
X230500D01*
Y42499D01*
D02*
G37*
G36*
X225500D02*
Y40500D01*
X227499D01*
X227119Y41416D01*
X226416Y42119D01*
X225500Y42499D01*
D02*
G37*
G36*
X224500D02*
X223584Y42119D01*
X222881Y41416D01*
X222501Y40500D01*
X224500D01*
Y42499D01*
D02*
G37*
G36*
X219500D02*
Y40500D01*
X221499D01*
X221119Y41416D01*
X220416Y42119D01*
X219500Y42499D01*
D02*
G37*
G36*
X218500D02*
X217584Y42119D01*
X216881Y41416D01*
X216501Y40500D01*
X218500D01*
Y42499D01*
D02*
G37*
G36*
X213500D02*
Y40500D01*
X215499D01*
X215119Y41416D01*
X214416Y42119D01*
X213500Y42499D01*
D02*
G37*
G36*
X212500D02*
X211584Y42119D01*
X210881Y41416D01*
X210501Y40500D01*
X212500D01*
Y42499D01*
D02*
G37*
G36*
X269499Y39500D02*
X267500D01*
Y37501D01*
X268416Y37881D01*
X269119Y38584D01*
X269499Y39500D01*
D02*
G37*
G36*
X266500D02*
X264501D01*
X264881Y38584D01*
X265584Y37881D01*
X266500Y37501D01*
Y39500D01*
D02*
G37*
G36*
X263499D02*
X261500D01*
Y37501D01*
X262416Y37881D01*
X263119Y38584D01*
X263499Y39500D01*
D02*
G37*
G36*
X260500D02*
X258501D01*
X258881Y38584D01*
X259584Y37881D01*
X260500Y37501D01*
Y39500D01*
D02*
G37*
G36*
X257499D02*
X255500D01*
Y37501D01*
X256416Y37881D01*
X257119Y38584D01*
X257499Y39500D01*
D02*
G37*
G36*
X254500D02*
X252501D01*
X252881Y38584D01*
X253584Y37881D01*
X254500Y37501D01*
Y39500D01*
D02*
G37*
G36*
X236500D02*
X234501D01*
X234881Y38584D01*
X235584Y37881D01*
X236500Y37501D01*
Y39500D01*
D02*
G37*
G36*
X233499D02*
X231500D01*
Y37501D01*
X232416Y37881D01*
X233119Y38584D01*
X233499Y39500D01*
D02*
G37*
G36*
X230500D02*
X228501D01*
X228881Y38584D01*
X229584Y37881D01*
X230500Y37501D01*
Y39500D01*
D02*
G37*
G36*
X227499D02*
X225500D01*
Y37501D01*
X226416Y37881D01*
X227119Y38584D01*
X227499Y39500D01*
D02*
G37*
G36*
X224500D02*
X222501D01*
X222881Y38584D01*
X223584Y37881D01*
X224500Y37501D01*
Y39500D01*
D02*
G37*
G36*
X221499D02*
X219500D01*
Y37501D01*
X220416Y37881D01*
X221119Y38584D01*
X221499Y39500D01*
D02*
G37*
G36*
X218500D02*
X216501D01*
X216881Y38584D01*
X217584Y37881D01*
X218500Y37501D01*
Y39500D01*
D02*
G37*
G36*
X215499D02*
X213500D01*
Y37501D01*
X214416Y37881D01*
X215119Y38584D01*
X215499Y39500D01*
D02*
G37*
G36*
X212500D02*
X210501D01*
X210881Y38584D01*
X211584Y37881D01*
X212500Y37501D01*
Y39500D01*
D02*
G37*
G36*
X246500Y36499D02*
Y34500D01*
X248499D01*
X248119Y35416D01*
X247416Y36119D01*
X246500Y36499D01*
D02*
G37*
G36*
X245500D02*
X244584Y36119D01*
X243881Y35416D01*
X243501Y34500D01*
X245500D01*
Y36499D01*
D02*
G37*
G36*
X240500D02*
Y34500D01*
X242499D01*
X242119Y35416D01*
X241416Y36119D01*
X240500Y36499D01*
D02*
G37*
G36*
X239500D02*
X238584Y36119D01*
X237881Y35416D01*
X237501Y34500D01*
X239500D01*
Y36499D01*
D02*
G37*
G36*
X222500D02*
Y34500D01*
X224499D01*
X224119Y35416D01*
X223416Y36119D01*
X222500Y36499D01*
D02*
G37*
G36*
X221500D02*
X220584Y36119D01*
X219881Y35416D01*
X219501Y34500D01*
X221500D01*
Y36499D01*
D02*
G37*
G36*
X216500D02*
Y34500D01*
X218499D01*
X218119Y35416D01*
X217416Y36119D01*
X216500Y36499D01*
D02*
G37*
G36*
X215500D02*
X214584Y36119D01*
X213881Y35416D01*
X213501Y34500D01*
X215500D01*
Y36499D01*
D02*
G37*
G36*
X257112Y36866D02*
X256898D01*
Y31937D01*
X261827D01*
Y32152D01*
X261457Y33533D01*
X260742Y34771D01*
X259731Y35781D01*
X258493Y36496D01*
X257112Y36866D01*
D02*
G37*
G36*
X255898D02*
X255683D01*
X254302Y36496D01*
X253064Y35781D01*
X252053Y34771D01*
X251339Y33533D01*
X250969Y32152D01*
Y31937D01*
X255898D01*
Y36866D01*
D02*
G37*
G36*
X232506D02*
X232291D01*
Y31937D01*
X237221D01*
Y32152D01*
X236851Y33533D01*
X236136Y34771D01*
X235125Y35781D01*
X233887Y36496D01*
X232506Y36866D01*
D02*
G37*
G36*
X231291D02*
X231077D01*
X229696Y36496D01*
X228458Y35781D01*
X227447Y34771D01*
X226732Y33533D01*
X226362Y32152D01*
Y31937D01*
X231291D01*
Y36866D01*
D02*
G37*
G36*
X248499Y33500D02*
X246500D01*
Y31501D01*
X247416Y31881D01*
X248119Y32584D01*
X248499Y33500D01*
D02*
G37*
G36*
X245500D02*
X243501D01*
X243881Y32584D01*
X244584Y31881D01*
X245500Y31501D01*
Y33500D01*
D02*
G37*
G36*
X242499D02*
X240500D01*
Y31501D01*
X241416Y31881D01*
X242119Y32584D01*
X242499Y33500D01*
D02*
G37*
G36*
X239500D02*
X237501D01*
X237881Y32584D01*
X238584Y31881D01*
X239500Y31501D01*
Y33500D01*
D02*
G37*
G36*
X224499D02*
X222500D01*
Y31501D01*
X223416Y31881D01*
X224119Y32584D01*
X224499Y33500D01*
D02*
G37*
G36*
X221500D02*
X219501D01*
X219881Y32584D01*
X220584Y31881D01*
X221500Y31501D01*
Y33500D01*
D02*
G37*
G36*
X218499D02*
X216500D01*
Y31501D01*
X217416Y31881D01*
X218119Y32584D01*
X218499Y33500D01*
D02*
G37*
G36*
X215500D02*
X213501D01*
X213881Y32584D01*
X214584Y31881D01*
X215500Y31501D01*
Y33500D01*
D02*
G37*
G36*
X267500Y30499D02*
Y28500D01*
X269499D01*
X269119Y29416D01*
X268416Y30119D01*
X267500Y30499D01*
D02*
G37*
G36*
X266500D02*
X265584Y30119D01*
X264881Y29416D01*
X264501Y28500D01*
X266500D01*
Y30499D01*
D02*
G37*
G36*
X243500D02*
Y28500D01*
X245499D01*
X245119Y29416D01*
X244416Y30119D01*
X243500Y30499D01*
D02*
G37*
G36*
X242500D02*
X241584Y30119D01*
X240881Y29416D01*
X240501Y28500D01*
X242500D01*
Y30499D01*
D02*
G37*
G36*
X219500D02*
Y28500D01*
X221499D01*
X221119Y29416D01*
X220416Y30119D01*
X219500Y30499D01*
D02*
G37*
G36*
X218500D02*
X217584Y30119D01*
X216881Y29416D01*
X216501Y28500D01*
X218500D01*
Y30499D01*
D02*
G37*
G36*
X261827Y30937D02*
X256898D01*
Y26008D01*
X257112D01*
X258493Y26378D01*
X259731Y27093D01*
X260742Y28103D01*
X261457Y29341D01*
X261827Y30722D01*
Y30937D01*
D02*
G37*
G36*
X255898D02*
X250969D01*
Y30722D01*
X251339Y29341D01*
X252053Y28103D01*
X253064Y27093D01*
X254302Y26378D01*
X255683Y26008D01*
X255898D01*
Y30937D01*
D02*
G37*
G36*
X237221D02*
X232291D01*
Y26008D01*
X232506D01*
X233887Y26378D01*
X235125Y27093D01*
X236136Y28103D01*
X236851Y29341D01*
X237221Y30722D01*
Y30937D01*
D02*
G37*
G36*
X231291D02*
X226362D01*
Y30722D01*
X226732Y29341D01*
X227447Y28103D01*
X228458Y27093D01*
X229696Y26378D01*
X231077Y26008D01*
X231291D01*
Y30937D01*
D02*
G37*
G36*
X269499Y27500D02*
X267500D01*
Y25501D01*
X268416Y25881D01*
X269119Y26584D01*
X269499Y27500D01*
D02*
G37*
G36*
X266500D02*
X264501D01*
X264881Y26584D01*
X265584Y25881D01*
X266500Y25501D01*
Y27500D01*
D02*
G37*
G36*
X245499D02*
X243500D01*
Y25501D01*
X244416Y25881D01*
X245119Y26584D01*
X245499Y27500D01*
D02*
G37*
G36*
X242500D02*
X240501D01*
X240881Y26584D01*
X241584Y25881D01*
X242500Y25501D01*
Y27500D01*
D02*
G37*
G36*
X221499D02*
X219500D01*
Y25501D01*
X220416Y25881D01*
X221119Y26584D01*
X221499Y27500D01*
D02*
G37*
G36*
X218500D02*
X216501D01*
X216881Y26584D01*
X217584Y25881D01*
X218500Y25501D01*
Y27500D01*
D02*
G37*
G36*
X264500Y24499D02*
Y22500D01*
X266499D01*
X266119Y23416D01*
X265416Y24119D01*
X264500Y24499D01*
D02*
G37*
G36*
X263500D02*
X262584Y24119D01*
X261881Y23416D01*
X261501Y22500D01*
X263500D01*
Y24499D01*
D02*
G37*
G36*
X258500D02*
Y22500D01*
X260499D01*
X260119Y23416D01*
X259416Y24119D01*
X258500Y24499D01*
D02*
G37*
G36*
X257500D02*
X256584Y24119D01*
X255881Y23416D01*
X255501Y22500D01*
X257500D01*
Y24499D01*
D02*
G37*
G36*
X252500D02*
Y22500D01*
X254499D01*
X254119Y23416D01*
X253416Y24119D01*
X252500Y24499D01*
D02*
G37*
G36*
X251500D02*
X250584Y24119D01*
X249881Y23416D01*
X249501Y22500D01*
X251500D01*
Y24499D01*
D02*
G37*
G36*
X246500D02*
Y22500D01*
X248499D01*
X248119Y23416D01*
X247416Y24119D01*
X246500Y24499D01*
D02*
G37*
G36*
X245500D02*
X244584Y24119D01*
X243881Y23416D01*
X243501Y22500D01*
X245500D01*
Y24499D01*
D02*
G37*
G36*
X240500D02*
Y22500D01*
X242499D01*
X242119Y23416D01*
X241416Y24119D01*
X240500Y24499D01*
D02*
G37*
G36*
X239500D02*
X238584Y24119D01*
X237881Y23416D01*
X237501Y22500D01*
X239500D01*
Y24499D01*
D02*
G37*
G36*
X234500D02*
Y22500D01*
X236499D01*
X236119Y23416D01*
X235416Y24119D01*
X234500Y24499D01*
D02*
G37*
G36*
X233500D02*
X232584Y24119D01*
X231881Y23416D01*
X231501Y22500D01*
X233500D01*
Y24499D01*
D02*
G37*
G36*
X228500D02*
Y22500D01*
X230499D01*
X230119Y23416D01*
X229416Y24119D01*
X228500Y24499D01*
D02*
G37*
G36*
X227500D02*
X226584Y24119D01*
X225881Y23416D01*
X225501Y22500D01*
X227500D01*
Y24499D01*
D02*
G37*
G36*
X222500D02*
Y22500D01*
X224499D01*
X224119Y23416D01*
X223416Y24119D01*
X222500Y24499D01*
D02*
G37*
G36*
X221500D02*
X220584Y24119D01*
X219881Y23416D01*
X219501Y22500D01*
X221500D01*
Y24499D01*
D02*
G37*
G36*
X216500D02*
Y22500D01*
X218499D01*
X218119Y23416D01*
X217416Y24119D01*
X216500Y24499D01*
D02*
G37*
G36*
X215500D02*
X214584Y24119D01*
X213881Y23416D01*
X213501Y22500D01*
X215500D01*
Y24499D01*
D02*
G37*
G36*
X210500D02*
Y22500D01*
X212499D01*
X212119Y23416D01*
X211416Y24119D01*
X210500Y24499D01*
D02*
G37*
G36*
X209500D02*
X208584Y24119D01*
X207881Y23416D01*
X207501Y22500D01*
X209500D01*
Y24499D01*
D02*
G37*
G36*
X266499Y21500D02*
X264500D01*
Y19501D01*
X265416Y19881D01*
X266119Y20584D01*
X266499Y21500D01*
D02*
G37*
G36*
X263500D02*
X261501D01*
X261881Y20584D01*
X262584Y19881D01*
X263500Y19501D01*
Y21500D01*
D02*
G37*
G36*
X260499D02*
X258500D01*
Y19501D01*
X259416Y19881D01*
X260119Y20584D01*
X260499Y21500D01*
D02*
G37*
G36*
X257500D02*
X255501D01*
X255881Y20584D01*
X256584Y19881D01*
X257500Y19501D01*
Y21500D01*
D02*
G37*
G36*
X254499D02*
X252500D01*
Y19501D01*
X253416Y19881D01*
X254119Y20584D01*
X254499Y21500D01*
D02*
G37*
G36*
X251500D02*
X249501D01*
X249881Y20584D01*
X250584Y19881D01*
X251500Y19501D01*
Y21500D01*
D02*
G37*
G36*
X248499D02*
X246500D01*
Y19501D01*
X247416Y19881D01*
X248119Y20584D01*
X248499Y21500D01*
D02*
G37*
G36*
X245500D02*
X243501D01*
X243881Y20584D01*
X244584Y19881D01*
X245500Y19501D01*
Y21500D01*
D02*
G37*
G36*
X242499D02*
X240500D01*
Y19501D01*
X241416Y19881D01*
X242119Y20584D01*
X242499Y21500D01*
D02*
G37*
G36*
X239500D02*
X237501D01*
X237881Y20584D01*
X238584Y19881D01*
X239500Y19501D01*
Y21500D01*
D02*
G37*
G36*
X236499D02*
X234500D01*
Y19501D01*
X235416Y19881D01*
X236119Y20584D01*
X236499Y21500D01*
D02*
G37*
G36*
X233500D02*
X231501D01*
X231881Y20584D01*
X232584Y19881D01*
X233500Y19501D01*
Y21500D01*
D02*
G37*
G36*
X230499D02*
X228500D01*
Y19501D01*
X229416Y19881D01*
X230119Y20584D01*
X230499Y21500D01*
D02*
G37*
G36*
X227500D02*
X225501D01*
X225881Y20584D01*
X226584Y19881D01*
X227500Y19501D01*
Y21500D01*
D02*
G37*
G36*
X224499D02*
X222500D01*
Y19501D01*
X223416Y19881D01*
X224119Y20584D01*
X224499Y21500D01*
D02*
G37*
G36*
X221500D02*
X219501D01*
X219881Y20584D01*
X220584Y19881D01*
X221500Y19501D01*
Y21500D01*
D02*
G37*
G36*
X218499D02*
X216500D01*
Y19501D01*
X217416Y19881D01*
X218119Y20584D01*
X218499Y21500D01*
D02*
G37*
G36*
X215500D02*
X213501D01*
X213881Y20584D01*
X214584Y19881D01*
X215500Y19501D01*
Y21500D01*
D02*
G37*
G36*
X212499D02*
X210500D01*
Y19501D01*
X211416Y19881D01*
X212119Y20584D01*
X212499Y21500D01*
D02*
G37*
G36*
X209500D02*
X207501D01*
X207881Y20584D01*
X208584Y19881D01*
X209500Y19501D01*
Y21500D01*
D02*
G37*
%LPD*%
D21*
X137795Y43740D02*
D03*
X244094D02*
D03*
X31496D02*
D03*
D22*
X125492Y31437D02*
D03*
X150098D02*
D03*
Y56043D02*
D03*
X125492D02*
D03*
X231791Y31437D02*
D03*
X256398D02*
D03*
Y56043D02*
D03*
X231791D02*
D03*
X19193Y31437D02*
D03*
X43799D02*
D03*
Y56043D02*
D03*
X19193D02*
D03*
D23*
X8000Y8000D02*
D03*
X266000D02*
D03*
Y86000D02*
D03*
X8000D02*
D03*
D24*
X122000Y84000D02*
D03*
X132000D02*
D03*
X142000D02*
D03*
D25*
X152000D02*
D03*
D26*
X173311Y80063D02*
D03*
X176311Y74063D02*
D03*
X173311Y44063D02*
D03*
Y20063D02*
D03*
X167311Y80063D02*
D03*
X170311Y74063D02*
D03*
X167311Y56063D02*
D03*
Y44063D02*
D03*
Y32063D02*
D03*
Y20063D02*
D03*
X161311Y80063D02*
D03*
X164311Y74063D02*
D03*
Y62063D02*
D03*
X161311Y56063D02*
D03*
X164311Y38063D02*
D03*
X161311Y32063D02*
D03*
X164311Y26063D02*
D03*
X161311Y20063D02*
D03*
X158311Y74063D02*
D03*
Y62063D02*
D03*
Y50063D02*
D03*
Y38063D02*
D03*
Y26063D02*
D03*
X155311Y20063D02*
D03*
X152311Y74063D02*
D03*
X149311Y20063D02*
D03*
X146311Y74063D02*
D03*
X143311Y20063D02*
D03*
X140311Y62063D02*
D03*
X137311Y56063D02*
D03*
Y32063D02*
D03*
X140311Y26063D02*
D03*
X137311Y20063D02*
D03*
X134311Y74063D02*
D03*
Y62063D02*
D03*
Y26063D02*
D03*
X131311Y20063D02*
D03*
X128311Y74063D02*
D03*
X125311Y20063D02*
D03*
X122311Y74063D02*
D03*
X119311Y20063D02*
D03*
X113311Y80063D02*
D03*
X116311Y74063D02*
D03*
Y62063D02*
D03*
X113311Y56063D02*
D03*
X116311Y50063D02*
D03*
Y38063D02*
D03*
X113311Y32063D02*
D03*
X116311Y26063D02*
D03*
X113311Y20063D02*
D03*
X107311Y80063D02*
D03*
X110311Y74063D02*
D03*
Y62063D02*
D03*
X107311Y44063D02*
D03*
X110311Y38063D02*
D03*
X107311Y32063D02*
D03*
X110311Y26063D02*
D03*
X107311Y20063D02*
D03*
X101311Y80063D02*
D03*
X104311Y74063D02*
D03*
X101311Y44063D02*
D03*
Y20063D02*
D03*
X267000Y64000D02*
D03*
Y52000D02*
D03*
X264000Y46000D02*
D03*
X267000Y40000D02*
D03*
Y28000D02*
D03*
X264000Y22000D02*
D03*
X261000Y64000D02*
D03*
X258000Y46000D02*
D03*
X261000Y40000D02*
D03*
X258000Y22000D02*
D03*
X252000Y46000D02*
D03*
X255000Y40000D02*
D03*
X252000Y22000D02*
D03*
X249000Y64000D02*
D03*
X246000Y58000D02*
D03*
Y34000D02*
D03*
Y22000D02*
D03*
X243000Y64000D02*
D03*
Y52000D02*
D03*
X240000Y34000D02*
D03*
X243000Y28000D02*
D03*
X240000Y22000D02*
D03*
X237000Y64000D02*
D03*
Y40000D02*
D03*
X234000Y22000D02*
D03*
X231000Y40000D02*
D03*
X228000Y22000D02*
D03*
X225000Y64000D02*
D03*
X222000Y58000D02*
D03*
X225000Y40000D02*
D03*
X222000Y34000D02*
D03*
Y22000D02*
D03*
X219000Y64000D02*
D03*
X216000Y58000D02*
D03*
X219000Y40000D02*
D03*
X216000Y34000D02*
D03*
X219000Y28000D02*
D03*
X216000Y22000D02*
D03*
X210000Y46000D02*
D03*
X213000Y40000D02*
D03*
X210000Y22000D02*
D03*
X68000Y65000D02*
D03*
Y41000D02*
D03*
X62000Y65000D02*
D03*
X59000Y59000D02*
D03*
X62000Y41000D02*
D03*
X59000Y35000D02*
D03*
Y23000D02*
D03*
X56000Y65000D02*
D03*
X53000Y59000D02*
D03*
X56000Y53000D02*
D03*
X53000Y35000D02*
D03*
X56000Y29000D02*
D03*
X53000Y23000D02*
D03*
X50000Y65000D02*
D03*
X47000Y23000D02*
D03*
X44000Y65000D02*
D03*
X41000Y23000D02*
D03*
X38000Y65000D02*
D03*
X35000Y59000D02*
D03*
Y35000D02*
D03*
Y23000D02*
D03*
X32000Y65000D02*
D03*
X29000Y59000D02*
D03*
X32000Y53000D02*
D03*
X29000Y35000D02*
D03*
X32000Y29000D02*
D03*
X29000Y23000D02*
D03*
X26000Y65000D02*
D03*
X23000Y47000D02*
D03*
Y23000D02*
D03*
X20000Y65000D02*
D03*
X17000Y47000D02*
D03*
X20000Y41000D02*
D03*
X17000Y23000D02*
D03*
X14000Y65000D02*
D03*
X11000Y59000D02*
D03*
Y47000D02*
D03*
X14000Y41000D02*
D03*
X11000Y35000D02*
D03*
Y23000D02*
D03*
X8000Y65000D02*
D03*
X5000Y59000D02*
D03*
X8000Y53000D02*
D03*
X5000Y47000D02*
D03*
X8000Y41000D02*
D03*
X5000Y35000D02*
D03*
X8000Y29000D02*
D03*
X5000Y23000D02*
D03*
M02*
