G04*
G04 #@! TF.GenerationSoftware,Altium Limited,Altium Designer,21.9.2 (33)*
G04*
G04 Layer_Color=2752767*
%FSLAX24Y24*%
%MOIN*%
G70*
G04*
G04 #@! TF.SameCoordinates,87D4948C-9FC7-47F9-90E0-4F3E9AE4390E*
G04*
G04*
G04 #@! TF.FilePolarity,Positive*
G04*
G01*
G75*
%ADD27C,0.0020*%
%ADD28C,0.0027*%
D27*
X13700Y4294D02*
Y4454D01*
X13860D01*
Y4294D01*
X13700D01*
X800Y720D02*
X720Y880D01*
X880D01*
X800Y720D01*
X26600D02*
X26520Y880D01*
X26680D01*
X26600Y720D01*
Y8520D02*
X26520Y8680D01*
X26680D01*
X26600Y8520D01*
X800D02*
X720Y8680D01*
X880D01*
X800Y8520D01*
X12200Y8320D02*
X12240Y8360D01*
X12280D01*
X12240Y8400D01*
X12280Y8440D01*
X12240D01*
X12200Y8480D01*
X12160Y8440D01*
X12120D01*
X12160Y8400D01*
X12120Y8360D01*
X12160D01*
X12200Y8320D01*
X13200D02*
X13240Y8360D01*
X13280D01*
X13240Y8400D01*
X13280Y8440D01*
X13240D01*
X13200Y8480D01*
X13160Y8440D01*
X13120D01*
X13160Y8400D01*
X13120Y8360D01*
X13160D01*
X13200Y8320D01*
X14200D02*
X14240Y8360D01*
X14280D01*
X14240Y8400D01*
X14280Y8440D01*
X14240D01*
X14200Y8480D01*
X14160Y8440D01*
X14120D01*
X14160Y8400D01*
X14120Y8360D01*
X14160D01*
X14200Y8320D01*
X15200D02*
X15240Y8360D01*
X15280D01*
X15240Y8400D01*
X15280Y8440D01*
X15240D01*
X15200Y8480D01*
X15160Y8440D01*
X15120D01*
X15160Y8400D01*
X15120Y8360D01*
X15160D01*
X15200Y8320D01*
X24329Y4294D02*
Y4454D01*
X24489D01*
Y4294D01*
X24329D01*
X3070D02*
Y4454D01*
X3230D01*
Y4294D01*
X3070D01*
X17115Y7068D02*
X17155Y7148D01*
X17115Y7228D01*
X17195Y7188D01*
X17275Y7228D01*
X17235Y7148D01*
X17275Y7068D01*
X17195Y7108D01*
X17115Y7068D01*
X17415Y6468D02*
X17455Y6548D01*
X17415Y6628D01*
X17495Y6588D01*
X17575Y6628D01*
X17535Y6548D01*
X17575Y6468D01*
X17495Y6508D01*
X17415Y6468D01*
Y4068D02*
X17455Y4148D01*
X17415Y4228D01*
X17495Y4188D01*
X17575Y4228D01*
X17535Y4148D01*
X17575Y4068D01*
X17495Y4108D01*
X17415Y4068D01*
X16515Y7068D02*
X16555Y7148D01*
X16515Y7228D01*
X16595Y7188D01*
X16675Y7228D01*
X16635Y7148D01*
X16675Y7068D01*
X16595Y7108D01*
X16515Y7068D01*
X16815Y6468D02*
X16855Y6548D01*
X16815Y6628D01*
X16895Y6588D01*
X16975Y6628D01*
X16935Y6548D01*
X16975Y6468D01*
X16895Y6508D01*
X16815Y6468D01*
X16515Y5868D02*
X16555Y5948D01*
X16515Y6028D01*
X16595Y5988D01*
X16675Y6028D01*
X16635Y5948D01*
X16675Y5868D01*
X16595Y5908D01*
X16515Y5868D01*
X16815Y4068D02*
X16855Y4148D01*
X16815Y4228D01*
X16895Y4188D01*
X16975Y4228D01*
X16935Y4148D01*
X16975Y4068D01*
X16895Y4108D01*
X16815Y4068D01*
X16515Y3468D02*
X16555Y3548D01*
X16515Y3628D01*
X16595Y3588D01*
X16675Y3628D01*
X16635Y3548D01*
X16675Y3468D01*
X16595Y3508D01*
X16515Y3468D01*
Y2268D02*
X16555Y2348D01*
X16515Y2428D01*
X16595Y2388D01*
X16675Y2428D01*
X16635Y2348D01*
X16675Y2268D01*
X16595Y2308D01*
X16515Y2268D01*
X15915Y7068D02*
X15955Y7148D01*
X15915Y7228D01*
X15995Y7188D01*
X16075Y7228D01*
X16035Y7148D01*
X16075Y7068D01*
X15995Y7108D01*
X15915Y7068D01*
X16215Y6468D02*
X16255Y6548D01*
X16215Y6628D01*
X16295Y6588D01*
X16375Y6628D01*
X16335Y6548D01*
X16375Y6468D01*
X16295Y6508D01*
X16215Y6468D01*
X15915Y5868D02*
X15955Y5948D01*
X15915Y6028D01*
X15995Y5988D01*
X16075Y6028D01*
X16035Y5948D01*
X16075Y5868D01*
X15995Y5908D01*
X15915Y5868D01*
X16215Y5268D02*
X16255Y5348D01*
X16215Y5428D01*
X16295Y5388D01*
X16375Y5428D01*
X16335Y5348D01*
X16375Y5268D01*
X16295Y5308D01*
X16215Y5268D01*
Y4068D02*
X16255Y4148D01*
X16215Y4228D01*
X16295Y4188D01*
X16375Y4228D01*
X16335Y4148D01*
X16375Y4068D01*
X16295Y4108D01*
X16215Y4068D01*
X15915Y3468D02*
X15955Y3548D01*
X15915Y3628D01*
X15995Y3588D01*
X16075Y3628D01*
X16035Y3548D01*
X16075Y3468D01*
X15995Y3508D01*
X15915Y3468D01*
X16215Y2868D02*
X16255Y2948D01*
X16215Y3028D01*
X16295Y2988D01*
X16375Y3028D01*
X16335Y2948D01*
X16375Y2868D01*
X16295Y2908D01*
X16215Y2868D01*
X15915Y2268D02*
X15955Y2348D01*
X15915Y2428D01*
X15995Y2388D01*
X16075Y2428D01*
X16035Y2348D01*
X16075Y2268D01*
X15995Y2308D01*
X15915Y2268D01*
X15315Y7068D02*
X15355Y7148D01*
X15315Y7228D01*
X15395Y7188D01*
X15475Y7228D01*
X15435Y7148D01*
X15475Y7068D01*
X15395Y7108D01*
X15315Y7068D01*
X15615Y6468D02*
X15655Y6548D01*
X15615Y6628D01*
X15695Y6588D01*
X15775Y6628D01*
X15735Y6548D01*
X15775Y6468D01*
X15695Y6508D01*
X15615Y6468D01*
Y2868D02*
X15655Y2948D01*
X15615Y3028D01*
X15695Y2988D01*
X15775Y3028D01*
X15735Y2948D01*
X15775Y2868D01*
X15695Y2908D01*
X15615Y2868D01*
X15315Y2268D02*
X15355Y2348D01*
X15315Y2428D01*
X15395Y2388D01*
X15475Y2428D01*
X15435Y2348D01*
X15475Y2268D01*
X15395Y2308D01*
X15315Y2268D01*
X14715Y7068D02*
X14755Y7148D01*
X14715Y7228D01*
X14795Y7188D01*
X14875Y7228D01*
X14835Y7148D01*
X14875Y7068D01*
X14795Y7108D01*
X14715Y7068D01*
X15015Y6468D02*
X15055Y6548D01*
X15015Y6628D01*
X15095Y6588D01*
X15175Y6628D01*
X15135Y6548D01*
X15175Y6468D01*
X15095Y6508D01*
X15015Y6468D01*
X14715Y2268D02*
X14755Y2348D01*
X14715Y2428D01*
X14795Y2388D01*
X14875Y2428D01*
X14835Y2348D01*
X14875Y2268D01*
X14795Y2308D01*
X14715Y2268D01*
X14115Y7068D02*
X14155Y7148D01*
X14115Y7228D01*
X14195Y7188D01*
X14275Y7228D01*
X14235Y7148D01*
X14275Y7068D01*
X14195Y7108D01*
X14115Y7068D01*
X14415Y6468D02*
X14455Y6548D01*
X14415Y6628D01*
X14495Y6588D01*
X14575Y6628D01*
X14535Y6548D01*
X14575Y6468D01*
X14495Y6508D01*
X14415Y6468D01*
X14115Y5868D02*
X14155Y5948D01*
X14115Y6028D01*
X14195Y5988D01*
X14275Y6028D01*
X14235Y5948D01*
X14275Y5868D01*
X14195Y5908D01*
X14115Y5868D01*
Y3468D02*
X14155Y3548D01*
X14115Y3628D01*
X14195Y3588D01*
X14275Y3628D01*
X14235Y3548D01*
X14275Y3468D01*
X14195Y3508D01*
X14115Y3468D01*
Y2268D02*
X14155Y2348D01*
X14115Y2428D01*
X14195Y2388D01*
X14275Y2428D01*
X14235Y2348D01*
X14275Y2268D01*
X14195Y2308D01*
X14115Y2268D01*
X13515Y7068D02*
X13555Y7148D01*
X13515Y7228D01*
X13595Y7188D01*
X13675Y7228D01*
X13635Y7148D01*
X13675Y7068D01*
X13595Y7108D01*
X13515Y7068D01*
X13815Y6468D02*
X13855Y6548D01*
X13815Y6628D01*
X13895Y6588D01*
X13975Y6628D01*
X13935Y6548D01*
X13975Y6468D01*
X13895Y6508D01*
X13815Y6468D01*
X13515Y5868D02*
X13555Y5948D01*
X13515Y6028D01*
X13595Y5988D01*
X13675Y6028D01*
X13635Y5948D01*
X13675Y5868D01*
X13595Y5908D01*
X13515Y5868D01*
X13815Y5268D02*
X13855Y5348D01*
X13815Y5428D01*
X13895Y5388D01*
X13975Y5428D01*
X13935Y5348D01*
X13975Y5268D01*
X13895Y5308D01*
X13815Y5268D01*
X13515Y3468D02*
X13555Y3548D01*
X13515Y3628D01*
X13595Y3588D01*
X13675Y3628D01*
X13635Y3548D01*
X13675Y3468D01*
X13595Y3508D01*
X13515Y3468D01*
X13815Y2868D02*
X13855Y2948D01*
X13815Y3028D01*
X13895Y2988D01*
X13975Y3028D01*
X13935Y2948D01*
X13975Y2868D01*
X13895Y2908D01*
X13815Y2868D01*
X13515Y2268D02*
X13555Y2348D01*
X13515Y2428D01*
X13595Y2388D01*
X13675Y2428D01*
X13635Y2348D01*
X13675Y2268D01*
X13595Y2308D01*
X13515Y2268D01*
X12915Y7068D02*
X12955Y7148D01*
X12915Y7228D01*
X12995Y7188D01*
X13075Y7228D01*
X13035Y7148D01*
X13075Y7068D01*
X12995Y7108D01*
X12915Y7068D01*
X13215Y6468D02*
X13255Y6548D01*
X13215Y6628D01*
X13295Y6588D01*
X13375Y6628D01*
X13335Y6548D01*
X13375Y6468D01*
X13295Y6508D01*
X13215Y6468D01*
X12915Y2268D02*
X12955Y2348D01*
X12915Y2428D01*
X12995Y2388D01*
X13075Y2428D01*
X13035Y2348D01*
X13075Y2268D01*
X12995Y2308D01*
X12915Y2268D01*
X12315Y7068D02*
X12355Y7148D01*
X12315Y7228D01*
X12395Y7188D01*
X12475Y7228D01*
X12435Y7148D01*
X12475Y7068D01*
X12395Y7108D01*
X12315Y7068D01*
X12615Y6468D02*
X12655Y6548D01*
X12615Y6628D01*
X12695Y6588D01*
X12775Y6628D01*
X12735Y6548D01*
X12775Y6468D01*
X12695Y6508D01*
X12615Y6468D01*
X11715Y7068D02*
X11755Y7148D01*
X11715Y7228D01*
X11795Y7188D01*
X11875Y7228D01*
X11835Y7148D01*
X11875Y7068D01*
X11795Y7108D01*
X11715Y7068D01*
X12015Y6468D02*
X12055Y6548D01*
X12015Y6628D01*
X12095Y6588D01*
X12175Y6628D01*
X12135Y6548D01*
X12175Y6468D01*
X12095Y6508D01*
X12015Y6468D01*
X11715Y3468D02*
X11755Y3548D01*
X11715Y3628D01*
X11795Y3588D01*
X11875Y3628D01*
X11835Y3548D01*
X11875Y3468D01*
X11795Y3508D01*
X11715Y3468D01*
Y2268D02*
X11755Y2348D01*
X11715Y2428D01*
X11795Y2388D01*
X11875Y2428D01*
X11835Y2348D01*
X11875Y2268D01*
X11795Y2308D01*
X11715Y2268D01*
X11115Y7068D02*
X11155Y7148D01*
X11115Y7228D01*
X11195Y7188D01*
X11275Y7228D01*
X11235Y7148D01*
X11275Y7068D01*
X11195Y7108D01*
X11115Y7068D01*
X11415Y6468D02*
X11455Y6548D01*
X11415Y6628D01*
X11495Y6588D01*
X11575Y6628D01*
X11535Y6548D01*
X11575Y6468D01*
X11495Y6508D01*
X11415Y6468D01*
X11115Y5868D02*
X11155Y5948D01*
X11115Y6028D01*
X11195Y5988D01*
X11275Y6028D01*
X11235Y5948D01*
X11275Y5868D01*
X11195Y5908D01*
X11115Y5868D01*
X11415Y5268D02*
X11455Y5348D01*
X11415Y5428D01*
X11495Y5388D01*
X11575Y5428D01*
X11535Y5348D01*
X11575Y5268D01*
X11495Y5308D01*
X11415Y5268D01*
X11115Y3468D02*
X11155Y3548D01*
X11115Y3628D01*
X11195Y3588D01*
X11275Y3628D01*
X11235Y3548D01*
X11275Y3468D01*
X11195Y3508D01*
X11115Y3468D01*
X11415Y2868D02*
X11455Y2948D01*
X11415Y3028D01*
X11495Y2988D01*
X11575Y3028D01*
X11535Y2948D01*
X11575Y2868D01*
X11495Y2908D01*
X11415Y2868D01*
X11115Y2268D02*
X11155Y2348D01*
X11115Y2428D01*
X11195Y2388D01*
X11275Y2428D01*
X11235Y2348D01*
X11275Y2268D01*
X11195Y2308D01*
X11115Y2268D01*
X10515Y7068D02*
X10555Y7148D01*
X10515Y7228D01*
X10595Y7188D01*
X10675Y7228D01*
X10635Y7148D01*
X10675Y7068D01*
X10595Y7108D01*
X10515Y7068D01*
X10815Y6468D02*
X10855Y6548D01*
X10815Y6628D01*
X10895Y6588D01*
X10975Y6628D01*
X10935Y6548D01*
X10975Y6468D01*
X10895Y6508D01*
X10815Y6468D01*
Y4068D02*
X10855Y4148D01*
X10815Y4228D01*
X10895Y4188D01*
X10975Y4228D01*
X10935Y4148D01*
X10975Y4068D01*
X10895Y4108D01*
X10815Y4068D01*
Y2868D02*
X10855Y2948D01*
X10815Y3028D01*
X10895Y2988D01*
X10975Y3028D01*
X10935Y2948D01*
X10975Y2868D01*
X10895Y2908D01*
X10815Y2868D01*
X9915Y7068D02*
X9955Y7148D01*
X9915Y7228D01*
X9995Y7188D01*
X10075Y7228D01*
X10035Y7148D01*
X10075Y7068D01*
X9995Y7108D01*
X9915Y7068D01*
X10215Y6468D02*
X10255Y6548D01*
X10215Y6628D01*
X10295Y6588D01*
X10375Y6628D01*
X10335Y6548D01*
X10375Y6468D01*
X10295Y6508D01*
X10215Y6468D01*
Y4068D02*
X10255Y4148D01*
X10215Y4228D01*
X10295Y4188D01*
X10375Y4228D01*
X10335Y4148D01*
X10375Y4068D01*
X10295Y4108D01*
X10215Y4068D01*
X26620Y6320D02*
X26660Y6400D01*
X26620Y6480D01*
X26700Y6440D01*
X26780Y6480D01*
X26740Y6400D01*
X26780Y6320D01*
X26700Y6360D01*
X26620Y6320D01*
Y5120D02*
X26660Y5200D01*
X26620Y5280D01*
X26700Y5240D01*
X26780Y5280D01*
X26740Y5200D01*
X26780Y5120D01*
X26700Y5160D01*
X26620Y5120D01*
X26320Y4520D02*
X26360Y4600D01*
X26320Y4680D01*
X26400Y4640D01*
X26480Y4680D01*
X26440Y4600D01*
X26480Y4520D01*
X26400Y4560D01*
X26320Y4520D01*
X26620Y3920D02*
X26660Y4000D01*
X26620Y4080D01*
X26700Y4040D01*
X26780Y4080D01*
X26740Y4000D01*
X26780Y3920D01*
X26700Y3960D01*
X26620Y3920D01*
Y2720D02*
X26660Y2800D01*
X26620Y2880D01*
X26700Y2840D01*
X26780Y2880D01*
X26740Y2800D01*
X26780Y2720D01*
X26700Y2760D01*
X26620Y2720D01*
X26320Y2120D02*
X26360Y2200D01*
X26320Y2280D01*
X26400Y2240D01*
X26480Y2280D01*
X26440Y2200D01*
X26480Y2120D01*
X26400Y2160D01*
X26320Y2120D01*
X26020Y6320D02*
X26060Y6400D01*
X26020Y6480D01*
X26100Y6440D01*
X26180Y6480D01*
X26140Y6400D01*
X26180Y6320D01*
X26100Y6360D01*
X26020Y6320D01*
X25720Y4520D02*
X25760Y4600D01*
X25720Y4680D01*
X25800Y4640D01*
X25880Y4680D01*
X25840Y4600D01*
X25880Y4520D01*
X25800Y4560D01*
X25720Y4520D01*
X26020Y3920D02*
X26060Y4000D01*
X26020Y4080D01*
X26100Y4040D01*
X26180Y4080D01*
X26140Y4000D01*
X26180Y3920D01*
X26100Y3960D01*
X26020Y3920D01*
X25720Y2120D02*
X25760Y2200D01*
X25720Y2280D01*
X25800Y2240D01*
X25880Y2280D01*
X25840Y2200D01*
X25880Y2120D01*
X25800Y2160D01*
X25720Y2120D01*
X25120Y4520D02*
X25160Y4600D01*
X25120Y4680D01*
X25200Y4640D01*
X25280Y4680D01*
X25240Y4600D01*
X25280Y4520D01*
X25200Y4560D01*
X25120Y4520D01*
X25420Y3920D02*
X25460Y4000D01*
X25420Y4080D01*
X25500Y4040D01*
X25580Y4080D01*
X25540Y4000D01*
X25580Y3920D01*
X25500Y3960D01*
X25420Y3920D01*
X25120Y2120D02*
X25160Y2200D01*
X25120Y2280D01*
X25200Y2240D01*
X25280Y2280D01*
X25240Y2200D01*
X25280Y2120D01*
X25200Y2160D01*
X25120Y2120D01*
X24820Y6320D02*
X24860Y6400D01*
X24820Y6480D01*
X24900Y6440D01*
X24980Y6480D01*
X24940Y6400D01*
X24980Y6320D01*
X24900Y6360D01*
X24820Y6320D01*
X24520Y5720D02*
X24560Y5800D01*
X24520Y5880D01*
X24600Y5840D01*
X24680Y5880D01*
X24640Y5800D01*
X24680Y5720D01*
X24600Y5760D01*
X24520Y5720D01*
Y3320D02*
X24560Y3400D01*
X24520Y3480D01*
X24600Y3440D01*
X24680Y3480D01*
X24640Y3400D01*
X24680Y3320D01*
X24600Y3360D01*
X24520Y3320D01*
Y2120D02*
X24560Y2200D01*
X24520Y2280D01*
X24600Y2240D01*
X24680Y2280D01*
X24640Y2200D01*
X24680Y2120D01*
X24600Y2160D01*
X24520Y2120D01*
X24220Y6320D02*
X24260Y6400D01*
X24220Y6480D01*
X24300Y6440D01*
X24380Y6480D01*
X24340Y6400D01*
X24380Y6320D01*
X24300Y6360D01*
X24220Y6320D01*
Y5120D02*
X24260Y5200D01*
X24220Y5280D01*
X24300Y5240D01*
X24380Y5280D01*
X24340Y5200D01*
X24380Y5120D01*
X24300Y5160D01*
X24220Y5120D01*
X23920Y3320D02*
X23960Y3400D01*
X23920Y3480D01*
X24000Y3440D01*
X24080Y3480D01*
X24040Y3400D01*
X24080Y3320D01*
X24000Y3360D01*
X23920Y3320D01*
X24220Y2720D02*
X24260Y2800D01*
X24220Y2880D01*
X24300Y2840D01*
X24380Y2880D01*
X24340Y2800D01*
X24380Y2720D01*
X24300Y2760D01*
X24220Y2720D01*
X23920Y2120D02*
X23960Y2200D01*
X23920Y2280D01*
X24000Y2240D01*
X24080Y2280D01*
X24040Y2200D01*
X24080Y2120D01*
X24000Y2160D01*
X23920Y2120D01*
X23620Y6320D02*
X23660Y6400D01*
X23620Y6480D01*
X23700Y6440D01*
X23780Y6480D01*
X23740Y6400D01*
X23780Y6320D01*
X23700Y6360D01*
X23620Y6320D01*
Y3920D02*
X23660Y4000D01*
X23620Y4080D01*
X23700Y4040D01*
X23780Y4080D01*
X23740Y4000D01*
X23780Y3920D01*
X23700Y3960D01*
X23620Y3920D01*
X23320Y2120D02*
X23360Y2200D01*
X23320Y2280D01*
X23400Y2240D01*
X23480Y2280D01*
X23440Y2200D01*
X23480Y2120D01*
X23400Y2160D01*
X23320Y2120D01*
X23020Y3920D02*
X23060Y4000D01*
X23020Y4080D01*
X23100Y4040D01*
X23180Y4080D01*
X23140Y4000D01*
X23180Y3920D01*
X23100Y3960D01*
X23020Y3920D01*
X22720Y2120D02*
X22760Y2200D01*
X22720Y2280D01*
X22800Y2240D01*
X22880Y2280D01*
X22840Y2200D01*
X22880Y2120D01*
X22800Y2160D01*
X22720Y2120D01*
X22420Y6320D02*
X22460Y6400D01*
X22420Y6480D01*
X22500Y6440D01*
X22580Y6480D01*
X22540Y6400D01*
X22580Y6320D01*
X22500Y6360D01*
X22420Y6320D01*
X22120Y5720D02*
X22160Y5800D01*
X22120Y5880D01*
X22200Y5840D01*
X22280Y5880D01*
X22240Y5800D01*
X22280Y5720D01*
X22200Y5760D01*
X22120Y5720D01*
X22420Y3920D02*
X22460Y4000D01*
X22420Y4080D01*
X22500Y4040D01*
X22580Y4080D01*
X22540Y4000D01*
X22580Y3920D01*
X22500Y3960D01*
X22420Y3920D01*
X22120Y3320D02*
X22160Y3400D01*
X22120Y3480D01*
X22200Y3440D01*
X22280Y3480D01*
X22240Y3400D01*
X22280Y3320D01*
X22200Y3360D01*
X22120Y3320D01*
Y2120D02*
X22160Y2200D01*
X22120Y2280D01*
X22200Y2240D01*
X22280Y2280D01*
X22240Y2200D01*
X22280Y2120D01*
X22200Y2160D01*
X22120Y2120D01*
X21820Y6320D02*
X21860Y6400D01*
X21820Y6480D01*
X21900Y6440D01*
X21980Y6480D01*
X21940Y6400D01*
X21980Y6320D01*
X21900Y6360D01*
X21820Y6320D01*
X21520Y5720D02*
X21560Y5800D01*
X21520Y5880D01*
X21600Y5840D01*
X21680Y5880D01*
X21640Y5800D01*
X21680Y5720D01*
X21600Y5760D01*
X21520Y5720D01*
X21820Y3920D02*
X21860Y4000D01*
X21820Y4080D01*
X21900Y4040D01*
X21980Y4080D01*
X21940Y4000D01*
X21980Y3920D01*
X21900Y3960D01*
X21820Y3920D01*
X21520Y3320D02*
X21560Y3400D01*
X21520Y3480D01*
X21600Y3440D01*
X21680Y3480D01*
X21640Y3400D01*
X21680Y3320D01*
X21600Y3360D01*
X21520Y3320D01*
X21820Y2720D02*
X21860Y2800D01*
X21820Y2880D01*
X21900Y2840D01*
X21980Y2880D01*
X21940Y2800D01*
X21980Y2720D01*
X21900Y2760D01*
X21820Y2720D01*
X21520Y2120D02*
X21560Y2200D01*
X21520Y2280D01*
X21600Y2240D01*
X21680Y2280D01*
X21640Y2200D01*
X21680Y2120D01*
X21600Y2160D01*
X21520Y2120D01*
X20920Y4520D02*
X20960Y4600D01*
X20920Y4680D01*
X21000Y4640D01*
X21080Y4680D01*
X21040Y4600D01*
X21080Y4520D01*
X21000Y4560D01*
X20920Y4520D01*
X21220Y3920D02*
X21260Y4000D01*
X21220Y4080D01*
X21300Y4040D01*
X21380Y4080D01*
X21340Y4000D01*
X21380Y3920D01*
X21300Y3960D01*
X21220Y3920D01*
X20920Y2120D02*
X20960Y2200D01*
X20920Y2280D01*
X21000Y2240D01*
X21080Y2280D01*
X21040Y2200D01*
X21080Y2120D01*
X21000Y2160D01*
X20920Y2120D01*
X6720Y6420D02*
X6760Y6500D01*
X6720Y6580D01*
X6800Y6540D01*
X6880Y6580D01*
X6840Y6500D01*
X6880Y6420D01*
X6800Y6460D01*
X6720Y6420D01*
Y4020D02*
X6760Y4100D01*
X6720Y4180D01*
X6800Y4140D01*
X6880Y4180D01*
X6840Y4100D01*
X6880Y4020D01*
X6800Y4060D01*
X6720Y4020D01*
X6120Y6420D02*
X6160Y6500D01*
X6120Y6580D01*
X6200Y6540D01*
X6280Y6580D01*
X6240Y6500D01*
X6280Y6420D01*
X6200Y6460D01*
X6120Y6420D01*
X5820Y5820D02*
X5860Y5900D01*
X5820Y5980D01*
X5900Y5940D01*
X5980Y5980D01*
X5940Y5900D01*
X5980Y5820D01*
X5900Y5860D01*
X5820Y5820D01*
X6120Y4020D02*
X6160Y4100D01*
X6120Y4180D01*
X6200Y4140D01*
X6280Y4180D01*
X6240Y4100D01*
X6280Y4020D01*
X6200Y4060D01*
X6120Y4020D01*
X5820Y3420D02*
X5860Y3500D01*
X5820Y3580D01*
X5900Y3540D01*
X5980Y3580D01*
X5940Y3500D01*
X5980Y3420D01*
X5900Y3460D01*
X5820Y3420D01*
Y2220D02*
X5860Y2300D01*
X5820Y2380D01*
X5900Y2340D01*
X5980Y2380D01*
X5940Y2300D01*
X5980Y2220D01*
X5900Y2260D01*
X5820Y2220D01*
X5520Y6420D02*
X5560Y6500D01*
X5520Y6580D01*
X5600Y6540D01*
X5680Y6580D01*
X5640Y6500D01*
X5680Y6420D01*
X5600Y6460D01*
X5520Y6420D01*
X5220Y5820D02*
X5260Y5900D01*
X5220Y5980D01*
X5300Y5940D01*
X5380Y5980D01*
X5340Y5900D01*
X5380Y5820D01*
X5300Y5860D01*
X5220Y5820D01*
X5520Y5220D02*
X5560Y5300D01*
X5520Y5380D01*
X5600Y5340D01*
X5680Y5380D01*
X5640Y5300D01*
X5680Y5220D01*
X5600Y5260D01*
X5520Y5220D01*
X5220Y3420D02*
X5260Y3500D01*
X5220Y3580D01*
X5300Y3540D01*
X5380Y3580D01*
X5340Y3500D01*
X5380Y3420D01*
X5300Y3460D01*
X5220Y3420D01*
X5520Y2820D02*
X5560Y2900D01*
X5520Y2980D01*
X5600Y2940D01*
X5680Y2980D01*
X5640Y2900D01*
X5680Y2820D01*
X5600Y2860D01*
X5520Y2820D01*
X5220Y2220D02*
X5260Y2300D01*
X5220Y2380D01*
X5300Y2340D01*
X5380Y2380D01*
X5340Y2300D01*
X5380Y2220D01*
X5300Y2260D01*
X5220Y2220D01*
X4920Y6420D02*
X4960Y6500D01*
X4920Y6580D01*
X5000Y6540D01*
X5080Y6580D01*
X5040Y6500D01*
X5080Y6420D01*
X5000Y6460D01*
X4920Y6420D01*
X4620Y2220D02*
X4660Y2300D01*
X4620Y2380D01*
X4700Y2340D01*
X4780Y2380D01*
X4740Y2300D01*
X4780Y2220D01*
X4700Y2260D01*
X4620Y2220D01*
X4320Y6420D02*
X4360Y6500D01*
X4320Y6580D01*
X4400Y6540D01*
X4480Y6580D01*
X4440Y6500D01*
X4480Y6420D01*
X4400Y6460D01*
X4320Y6420D01*
X4020Y2220D02*
X4060Y2300D01*
X4020Y2380D01*
X4100Y2340D01*
X4180Y2380D01*
X4140Y2300D01*
X4180Y2220D01*
X4100Y2260D01*
X4020Y2220D01*
X3720Y6420D02*
X3760Y6500D01*
X3720Y6580D01*
X3800Y6540D01*
X3880Y6580D01*
X3840Y6500D01*
X3880Y6420D01*
X3800Y6460D01*
X3720Y6420D01*
X3420Y5820D02*
X3460Y5900D01*
X3420Y5980D01*
X3500Y5940D01*
X3580Y5980D01*
X3540Y5900D01*
X3580Y5820D01*
X3500Y5860D01*
X3420Y5820D01*
Y3420D02*
X3460Y3500D01*
X3420Y3580D01*
X3500Y3540D01*
X3580Y3580D01*
X3540Y3500D01*
X3580Y3420D01*
X3500Y3460D01*
X3420Y3420D01*
Y2220D02*
X3460Y2300D01*
X3420Y2380D01*
X3500Y2340D01*
X3580Y2380D01*
X3540Y2300D01*
X3580Y2220D01*
X3500Y2260D01*
X3420Y2220D01*
X3120Y6420D02*
X3160Y6500D01*
X3120Y6580D01*
X3200Y6540D01*
X3280Y6580D01*
X3240Y6500D01*
X3280Y6420D01*
X3200Y6460D01*
X3120Y6420D01*
X2820Y5820D02*
X2860Y5900D01*
X2820Y5980D01*
X2900Y5940D01*
X2980Y5980D01*
X2940Y5900D01*
X2980Y5820D01*
X2900Y5860D01*
X2820Y5820D01*
X3120Y5220D02*
X3160Y5300D01*
X3120Y5380D01*
X3200Y5340D01*
X3280Y5380D01*
X3240Y5300D01*
X3280Y5220D01*
X3200Y5260D01*
X3120Y5220D01*
X2820Y3420D02*
X2860Y3500D01*
X2820Y3580D01*
X2900Y3540D01*
X2980Y3580D01*
X2940Y3500D01*
X2980Y3420D01*
X2900Y3460D01*
X2820Y3420D01*
X3120Y2820D02*
X3160Y2900D01*
X3120Y2980D01*
X3200Y2940D01*
X3280Y2980D01*
X3240Y2900D01*
X3280Y2820D01*
X3200Y2860D01*
X3120Y2820D01*
X2820Y2220D02*
X2860Y2300D01*
X2820Y2380D01*
X2900Y2340D01*
X2980Y2380D01*
X2940Y2300D01*
X2980Y2220D01*
X2900Y2260D01*
X2820Y2220D01*
X2520Y6420D02*
X2560Y6500D01*
X2520Y6580D01*
X2600Y6540D01*
X2680Y6580D01*
X2640Y6500D01*
X2680Y6420D01*
X2600Y6460D01*
X2520Y6420D01*
X2220Y4620D02*
X2260Y4700D01*
X2220Y4780D01*
X2300Y4740D01*
X2380Y4780D01*
X2340Y4700D01*
X2380Y4620D01*
X2300Y4660D01*
X2220Y4620D01*
Y2220D02*
X2260Y2300D01*
X2220Y2380D01*
X2300Y2340D01*
X2380Y2380D01*
X2340Y2300D01*
X2380Y2220D01*
X2300Y2260D01*
X2220Y2220D01*
X1920Y6420D02*
X1960Y6500D01*
X1920Y6580D01*
X2000Y6540D01*
X2080Y6580D01*
X2040Y6500D01*
X2080Y6420D01*
X2000Y6460D01*
X1920Y6420D01*
X1620Y4620D02*
X1660Y4700D01*
X1620Y4780D01*
X1700Y4740D01*
X1780Y4780D01*
X1740Y4700D01*
X1780Y4620D01*
X1700Y4660D01*
X1620Y4620D01*
X1920Y4020D02*
X1960Y4100D01*
X1920Y4180D01*
X2000Y4140D01*
X2080Y4180D01*
X2040Y4100D01*
X2080Y4020D01*
X2000Y4060D01*
X1920Y4020D01*
X1620Y2220D02*
X1660Y2300D01*
X1620Y2380D01*
X1700Y2340D01*
X1780Y2380D01*
X1740Y2300D01*
X1780Y2220D01*
X1700Y2260D01*
X1620Y2220D01*
X1320Y6420D02*
X1360Y6500D01*
X1320Y6580D01*
X1400Y6540D01*
X1480Y6580D01*
X1440Y6500D01*
X1480Y6420D01*
X1400Y6460D01*
X1320Y6420D01*
X1020Y5820D02*
X1060Y5900D01*
X1020Y5980D01*
X1100Y5940D01*
X1180Y5980D01*
X1140Y5900D01*
X1180Y5820D01*
X1100Y5860D01*
X1020Y5820D01*
Y4620D02*
X1060Y4700D01*
X1020Y4780D01*
X1100Y4740D01*
X1180Y4780D01*
X1140Y4700D01*
X1180Y4620D01*
X1100Y4660D01*
X1020Y4620D01*
X1320Y4020D02*
X1360Y4100D01*
X1320Y4180D01*
X1400Y4140D01*
X1480Y4180D01*
X1440Y4100D01*
X1480Y4020D01*
X1400Y4060D01*
X1320Y4020D01*
X1020Y3420D02*
X1060Y3500D01*
X1020Y3580D01*
X1100Y3540D01*
X1180Y3580D01*
X1140Y3500D01*
X1180Y3420D01*
X1100Y3460D01*
X1020Y3420D01*
Y2220D02*
X1060Y2300D01*
X1020Y2380D01*
X1100Y2340D01*
X1180Y2380D01*
X1140Y2300D01*
X1180Y2220D01*
X1100Y2260D01*
X1020Y2220D01*
X720Y6420D02*
X760Y6500D01*
X720Y6580D01*
X800Y6540D01*
X880Y6580D01*
X840Y6500D01*
X880Y6420D01*
X800Y6460D01*
X720Y6420D01*
X420Y5820D02*
X460Y5900D01*
X420Y5980D01*
X500Y5940D01*
X580Y5980D01*
X540Y5900D01*
X580Y5820D01*
X500Y5860D01*
X420Y5820D01*
X720Y5220D02*
X760Y5300D01*
X720Y5380D01*
X800Y5340D01*
X880Y5380D01*
X840Y5300D01*
X880Y5220D01*
X800Y5260D01*
X720Y5220D01*
X420Y4620D02*
X460Y4700D01*
X420Y4780D01*
X500Y4740D01*
X580Y4780D01*
X540Y4700D01*
X580Y4620D01*
X500Y4660D01*
X420Y4620D01*
X720Y4020D02*
X760Y4100D01*
X720Y4180D01*
X800Y4140D01*
X880Y4180D01*
X840Y4100D01*
X880Y4020D01*
X800Y4060D01*
X720Y4020D01*
X420Y3420D02*
X460Y3500D01*
X420Y3580D01*
X500Y3540D01*
X580Y3580D01*
X540Y3500D01*
X580Y3420D01*
X500Y3460D01*
X420Y3420D01*
X720Y2820D02*
X760Y2900D01*
X720Y2980D01*
X800Y2940D01*
X880Y2980D01*
X840Y2900D01*
X880Y2820D01*
X800Y2860D01*
X720Y2820D01*
X420Y2220D02*
X460Y2300D01*
X420Y2380D01*
X500Y2340D01*
X580Y2380D01*
X540Y2300D01*
X580Y2220D01*
X500Y2260D01*
X420Y2220D01*
D28*
X12629Y3144D02*
G03*
X12629Y3144I-80J0D01*
G01*
X15090D02*
G03*
X15090Y3144I-80J0D01*
G01*
Y5604D02*
G03*
X15090Y5604I-80J0D01*
G01*
X12629D02*
G03*
X12629Y5604I-80J0D01*
G01*
X23259Y3144D02*
G03*
X23259Y3144I-80J0D01*
G01*
X25720D02*
G03*
X25720Y3144I-80J0D01*
G01*
Y5604D02*
G03*
X25720Y5604I-80J0D01*
G01*
X23259D02*
G03*
X23259Y5604I-80J0D01*
G01*
X1999Y3144D02*
G03*
X1999Y3144I-80J0D01*
G01*
X4460D02*
G03*
X4460Y3144I-80J0D01*
G01*
Y5604D02*
G03*
X4460Y5604I-80J0D01*
G01*
X1999D02*
G03*
X1999Y5604I-80J0D01*
G01*
M02*
