M48
;Layer_Color=9474304
;FILE_FORMAT=2:5
INCH,TZ
;TYPE=PLATED
T1F00S00C0.01500
T2F00S00C0.03543
T3F00S00C0.05118
T4F00S00C0.05906
T5F00S00C0.09449
%
T01
X155311Y20063
X161311
X167311
X173311
X164311Y26063
X158311
X161311Y32063
X167311
X164311Y38063
X158311
Y50063
X161311Y56063
X167311
X164311Y62063
X158311
Y74063
X164311
X170311
X176311
X173311Y80063
X167311
X161311
X152311Y74063
X167311Y44063
X173311
X210000Y46000
X213000Y40000
X219000
X225000
X231000
X237000
X240000Y34000
X246000
X243000Y28000
X246000Y22000
X252000
X258000
X264000
X267000Y28000
Y40000
X261000
X255000
X258000Y46000
X264000
X267000Y52000
Y64000
X261000
X249000
X243000
X237000
X225000
X219000
X222000Y58000
X216000
Y34000
X222000
X219000Y28000
X222000Y22000
X228000
X234000
X240000
X216000
X210000
X243000Y52000
X246000Y58000
X252000Y46000
X137311Y56063
X140311Y62063
X134311
Y74063
X128311
X122311
X116311
X110311
X104311
X107311Y80063
X113311
X101311
X110311Y62063
X116311
X113311Y56063
X116311Y50063
Y38063
X110311
X113311Y32063
X107311
X110311Y26063
X116311
X119311Y20063
X125311
X131311
X137311
X143311
X149311
X140311Y26063
X134311
X137311Y32063
X113311Y20063
X107311
X101311
Y44063
X107311
X68000Y41000
X62000
X59000Y35000
X53000
X56000Y29000
X59000Y23000
X53000
X47000
X41000
X35000
X29000
X23000
X17000
X11000
X5000
X8000Y29000
X11000Y35000
X5000
X8000Y41000
X14000
X20000
X23000Y47000
X17000
X11000
X5000
X8000Y53000
X11000Y59000
X5000
X8000Y65000
X14000
X20000
X26000
X32000
X38000
X44000
X50000
X56000
X62000
X68000
X59000Y59000
X53000
X56000Y53000
X32000
X35000Y59000
X29000
Y35000
X35000
X32000Y29000
X146311Y74063
T02
X152000Y84000
X142000
X132000
X122000
T03
X244094Y43740
X137795
X31496
T04
X150098Y31437
Y56043
X231791
Y31437
X256398
Y56043
X125492
Y31437
X43799
X19193
Y56043
X43799
T05
X266000Y8000
Y86000
X8000
Y8000
M30
