G04*
G04 #@! TF.GenerationSoftware,Altium Limited,Altium Designer,21.9.2 (33)*
G04*
G04 Layer_Color=65535*
%FSLAX24Y24*%
%MOIN*%
G70*
G04*
G04 #@! TF.SameCoordinates,87D4948C-9FC7-47F9-90E0-4F3E9AE4390E*
G04*
G04*
G04 #@! TF.FilePolarity,Positive*
G04*
G01*
G75*
%ADD10C,0.0079*%
%ADD11C,0.0039*%
%ADD12C,0.0100*%
D10*
X11378Y4374D02*
G03*
X11417Y4374I20J0D01*
G01*
D02*
G03*
X11378Y4374I-20J0D01*
G01*
D02*
G03*
X11417Y4374I20J0D01*
G01*
X22008D02*
G03*
X22047Y4374I20J0D01*
G01*
D02*
G03*
X22008Y4374I-20J0D01*
G01*
D02*
G03*
X22047Y4374I20J0D01*
G01*
X748D02*
G03*
X787Y4374I20J0D01*
G01*
D02*
G03*
X748Y4374I-20J0D01*
G01*
D02*
G03*
X787Y4374I20J0D01*
G01*
X15700Y7900D02*
Y8900D01*
X11700Y7900D02*
X15700D01*
X11700Y8900D02*
X15700D01*
X11700Y7900D02*
Y8900D01*
D11*
X6299Y6343D02*
G03*
X6260Y6343I-20J0D01*
G01*
D02*
G03*
X6299Y6343I20J0D01*
G01*
X21260Y2341D02*
G03*
X21299Y2341I20J0D01*
G01*
D02*
G03*
X21260Y2341I-20J0D01*
G01*
X16929Y6343D02*
G03*
X16890Y6343I-20J0D01*
G01*
D02*
G03*
X16929Y6343I20J0D01*
G01*
X10630Y2341D02*
G03*
X10669Y2341I20J0D01*
G01*
D02*
G03*
X10630Y2341I-20J0D01*
G01*
X7087Y4805D02*
X9646D01*
X6890Y6305D02*
X10039D01*
X6715Y5358D02*
Y5752D01*
X10215Y5358D02*
Y5752D01*
X17913Y3878D02*
X20472D01*
X17520Y2378D02*
X20669D01*
X20844Y2931D02*
Y3325D01*
X17344Y2931D02*
Y3325D01*
X17717Y4805D02*
X20276D01*
X17520Y6305D02*
X20669D01*
X17344Y5358D02*
Y5752D01*
X20844Y5358D02*
Y5752D01*
X7283Y3878D02*
X9843D01*
X6890Y2378D02*
X10039D01*
X10215Y2931D02*
Y3325D01*
X6715Y2931D02*
Y3325D01*
D12*
X12480Y1524D02*
X12280D01*
X12380D01*
Y1024D01*
X12280Y925D01*
X12180D01*
X12080Y1024D01*
X12680Y925D02*
Y1524D01*
X12980D01*
X13080Y1424D01*
Y1224D01*
X12980Y1124D01*
X12680D01*
X13280Y1324D02*
Y925D01*
Y1124D01*
X13380Y1224D01*
X13480Y1324D01*
X13580D01*
X13979Y925D02*
X14179D01*
X14279Y1024D01*
Y1224D01*
X14179Y1324D01*
X13979D01*
X13879Y1224D01*
Y1024D01*
X13979Y925D01*
X14479Y1524D02*
Y925D01*
X14779D01*
X14879Y1024D01*
Y1124D01*
Y1224D01*
X14779Y1324D01*
X14479D01*
X15379Y925D02*
X15179D01*
X15079Y1024D01*
Y1224D01*
X15179Y1324D01*
X15379D01*
X15479Y1224D01*
Y1124D01*
X15079D01*
X17178Y1516D02*
Y1016D01*
Y1183D01*
X17512Y1516D01*
X17262Y1266D01*
X17512Y1016D01*
X17678Y1516D02*
Y1016D01*
X18012D01*
X18178D02*
Y1516D01*
X18511Y1016D01*
Y1516D01*
X18678Y1016D02*
Y1349D01*
X18845Y1516D01*
X19011Y1349D01*
Y1016D01*
Y1266D01*
X18678D01*
X19178Y933D02*
X19511D01*
X20011Y1433D02*
X19928Y1516D01*
X19761D01*
X19678Y1433D01*
Y1099D01*
X19761Y1016D01*
X19928D01*
X20011Y1099D01*
Y1266D01*
X19844D01*
X20177Y1016D02*
Y1516D01*
X20511Y1016D01*
Y1516D01*
X20677D02*
Y1016D01*
X20927D01*
X21011Y1099D01*
Y1433D01*
X20927Y1516D01*
X20677D01*
X6234Y1392D02*
Y892D01*
Y1058D01*
X6567Y1392D01*
X6317Y1142D01*
X6567Y892D01*
X6734Y1392D02*
Y892D01*
X6984D01*
X7067Y975D01*
Y1308D01*
X6984Y1392D01*
X6734D01*
X7567Y1308D02*
X7484Y1392D01*
X7317D01*
X7234Y1308D01*
Y975D01*
X7317Y892D01*
X7484D01*
X7567Y975D01*
Y1142D01*
X7400D01*
X7983Y892D02*
X7817D01*
X7734Y975D01*
Y1142D01*
X7817Y1225D01*
X7983D01*
X8067Y1142D01*
Y1058D01*
X7734D01*
X8233Y892D02*
Y1225D01*
X8483D01*
X8567Y1142D01*
Y892D01*
X8733Y808D02*
X9066D01*
X9566Y1308D02*
X9483Y1392D01*
X9316D01*
X9233Y1308D01*
Y975D01*
X9316Y892D01*
X9483D01*
X9566Y975D01*
Y1142D01*
X9400D01*
X9733Y892D02*
Y1392D01*
X10066Y892D01*
Y1392D01*
X10233D02*
Y892D01*
X10483D01*
X10566Y975D01*
Y1308D01*
X10483Y1392D01*
X10233D01*
X23710Y1524D02*
X23510D01*
X23610D01*
Y1024D01*
X23510Y925D01*
X23410D01*
X23310Y1024D01*
X23910Y1524D02*
Y925D01*
X24309D01*
X24509D02*
Y1524D01*
X24909Y925D01*
Y1524D01*
X25109Y925D02*
Y1324D01*
X25309Y1524D01*
X25509Y1324D01*
Y925D01*
Y1224D01*
X25109D01*
X12860Y7141D02*
Y7641D01*
X13110D01*
X13194Y7557D01*
Y7391D01*
X13110Y7307D01*
X12860D01*
X13360Y7141D02*
Y7641D01*
X13527Y7474D01*
X13693Y7641D01*
Y7141D01*
X14193Y7557D02*
X14110Y7641D01*
X13943D01*
X13860Y7557D01*
Y7224D01*
X13943Y7141D01*
X14110D01*
X14193Y7224D01*
X14360Y7641D02*
Y7224D01*
X14443Y7141D01*
X14610D01*
X14693Y7224D01*
Y7641D01*
X18178Y7577D02*
Y7077D01*
Y7243D01*
X18511Y7577D01*
X18261Y7327D01*
X18511Y7077D01*
X18678Y7577D02*
Y7077D01*
X19011D01*
X19178D02*
Y7577D01*
X19511Y7077D01*
Y7577D01*
X19678Y7077D02*
Y7410D01*
X19844Y7577D01*
X20011Y7410D01*
Y7077D01*
Y7327D01*
X19678D01*
X7234Y7550D02*
Y7050D01*
Y7217D01*
X7567Y7550D01*
X7317Y7300D01*
X7567Y7050D01*
X7734Y7550D02*
Y7050D01*
X7983D01*
X8067Y7133D01*
Y7467D01*
X7983Y7550D01*
X7734D01*
X8567Y7467D02*
X8483Y7550D01*
X8317D01*
X8233Y7467D01*
Y7133D01*
X8317Y7050D01*
X8483D01*
X8567Y7133D01*
Y7300D01*
X8400D01*
X8983Y7050D02*
X8817D01*
X8733Y7133D01*
Y7300D01*
X8817Y7383D01*
X8983D01*
X9066Y7300D01*
Y7217D01*
X8733D01*
X9233Y7050D02*
Y7383D01*
X9483D01*
X9566Y7300D01*
Y7050D01*
X2200Y1500D02*
X2000D01*
X2100D01*
Y1000D01*
X2000Y900D01*
X1900D01*
X1800Y1000D01*
X2400Y1500D02*
Y900D01*
X2700D01*
X2800Y1000D01*
Y1400D01*
X2700Y1500D01*
X2400D01*
X3400Y1400D02*
X3300Y1500D01*
X3100D01*
X3000Y1400D01*
Y1000D01*
X3100Y900D01*
X3300D01*
X3400Y1000D01*
Y1200D01*
X3200D01*
X3900Y900D02*
X3700D01*
X3600Y1000D01*
Y1200D01*
X3700Y1300D01*
X3900D01*
X4000Y1200D01*
Y1100D01*
X3600D01*
X4200Y900D02*
Y1300D01*
X4500D01*
X4600Y1200D01*
Y900D01*
M02*
